<?xml version="1.0" encoding="UTF-8"?>
<svg id="Layer_1" data-name="Layer 1" xmlns="http://www.w3.org/2000/svg" viewBox="0 0 125.57 37.12">
  <defs>
    <style>
      .cls-1 {
        fill: none;
      }

      .cls-2 {
        fill: #b7dede;
      }
    </style>
  </defs>
  <g>
    <rect class="cls-1" width="41.86" height="37.12"/>
    <path class="cls-2" d="M29.52,13.26c-1.13.41.08-.82-.32-1.17-.84-.71-2.38,1.44-2.38,1.44-.18.4-.34.72-.56,1.02-.28.43-.57.67-.8.67-.33,0-.48-.33-.48-.64,0-.4.57-1.09.57-1.12.4-.26-.53-.14-.56-.21-.04-.12,0-.23.08-.33.12-.1.69-.39.82-.56.16-.19.2-.46-.03-.66-.25-.14-.56,0-.7.15-.12.14-.36.57-.46.78-.08.19-.19.22-.27.22-.15,0-.46-.64-.52-.7-.34-.34-1.14,1.01-1.14,1.65,0,.9,1.68,1.81,1.68,1.84.04.04-.69.69-.78.69-.04,0-2.24-.75-2.46.23-.11.49.31.83.71,1.08l.19-.31c-.31-.19-.53-.44-.52-.73.02-.55,1.76.05,1.75.12,0,.04-1.81,1.96-1.87,3.85-.05,1.76,1.81,2.92,2.94,2.82.9-.06,1.43-.68,1.36-1.39-.03-.57-.44-.95-1.04-1.01-1.33-.12-1.08,1.24-.99,1.4.08.1-1.67-.61-.92-1.37.65-.46,1.51-1.29,1.72-2.32.16-.65.01-1.3-.36-1.73-.04-.07-.11-.14-.07-.26,0-.04,1.02-.82,1.1-.77.1.03.09.21.09.38-.1.36-.05,1.23.14,1.7.23.5,1.69,1.17,1.72,1.14.34-.16-.19-.8-.11-.87.04-.07.29-.07,1.05.08.57.07,1.43-.42,1.28-.79-.06-.14-1.34-.18-1.38-.25-.04-.09.24-.52.2-.55-.04-.07-1.33-.11-1.7-.29-.41-.19-.56-.37-.56-.63,0-.28.45-.5,1.02-.6.41-.07,1.13-.06,1.42.04,0,0,2.34,1,1.69-.59-.64-1.59,1.08-.08,1.23-.7.15-.62-.65-1.13-1.78-.72ZM23.85,18.94c-.93,2.11-1.67,1.48-1.77,1.39-.08-.03.54-2.16,1.67-3.19.08,0,.37,1.18.1,1.8Z"/>
    <path class="cls-2" d="M8.57,13.26c-1.13.41.09-.82-.32-1.17-.84-.71-2.38,1.44-2.38,1.44-.18.4-.34.72-.56,1.02-.27.43-.57.67-.8.67-.33,0-.48-.33-.48-.64,0-.4.57-1.09.57-1.12.4-.26-.53-.14-.56-.21-.04-.12,0-.23.08-.33.12-.1.69-.39.83-.56.16-.19.2-.46-.04-.66-.25-.14-.56,0-.7.15-.12.14-.35.57-.45.78-.08.19-.2.22-.27.22-.16,0-.47-.64-.52-.7-.34-.34-1.14,1.01-1.14,1.65,0,.9,1.68,1.81,1.68,1.84.04.04-.69.69-.79.69-.04,0-2.24-.75-2.46.23-.11.49.31.83.71,1.08l.2-.31c-.31-.19-.53-.44-.52-.73.02-.55,1.76.05,1.76.12,0,.04-1.81,1.96-1.87,3.85-.06,1.76,1.81,2.92,2.94,2.82.9-.06,1.43-.68,1.35-1.39-.03-.57-.44-.95-1.04-1.01-1.33-.12-1.08,1.24-.99,1.4.08.1-1.67-.61-.92-1.37.65-.46,1.51-1.29,1.72-2.32.16-.65.01-1.3-.35-1.73-.04-.07-.12-.14-.08-.26,0-.04,1.02-.82,1.1-.77.1.03.09.21.09.38-.1.36-.05,1.23.14,1.7.23.5,1.69,1.17,1.73,1.14.34-.16-.19-.8-.11-.87.04-.07.29-.07,1.05.08.56.07,1.43-.42,1.27-.79-.06-.14-1.34-.18-1.38-.25-.04-.09.24-.52.2-.55-.04-.07-1.32-.11-1.7-.29-.41-.19-.56-.37-.56-.63,0-.28.45-.5,1.02-.6.41-.07,1.13-.06,1.42.04,0,0,2.33,1,1.69-.59-.64-1.59,1.08-.08,1.23-.7.14-.62-.65-1.13-1.78-.72ZM2.89,18.94c-.92,2.11-1.67,1.48-1.77,1.39-.08-.03.54-2.16,1.67-3.19.08,0,.37,1.18.1,1.8Z"/>
    <path class="cls-2" d="M20.9,21.16c-.14-.62-1.88.88-1.22-.71.66-1.58-1.68-.6-1.68-.6-.29.1-1.02.1-1.42.04-.56-.1-1.02-.33-1.02-.61,0-.26.16-.43.57-.62.37-.17,1.66-.21,1.7-.28.04-.03-.23-.47-.19-.55.04-.07,1.32-.1,1.38-.24.16-.36-.7-.86-1.27-.79-.76.14-1.01.14-1.05.07-.08-.07.45-.7.12-.86-.04-.03-1.5.62-1.74,1.12-.2.47-.26,1.33-.16,1.69,0,.17,0,.35-.1.38-.08.05-1.09-.74-1.09-.78-.04-.12.04-.19.08-.26.37-.43.52-1.07.37-1.73-.19-1.04-1.05-1.87-1.7-2.33-.74-.77,1.01-1.47.94-1.37-.1.16-.36,1.52.98,1.4.6-.05,1.01-.43,1.05-1,.08-.71-.45-1.33-1.35-1.4-1.13-.1-3,1.04-2.96,2.8.05,1.89,1.83,3.82,1.83,3.86,0,.07-1.74.66-1.75.1,0-.29.22-.54.53-.72l-.2-.31c-.41.24-.83.58-.72,1.07.21.98,2.42.24,2.46.24.1,0,.82.66.78.69,0,.03-1.7.93-1.7,1.83,0,.64.79,2,1.13,1.66.06-.06.37-.69.53-.69.08,0,.19.04.27.23.1.21.33.64.45.78.14.16.45.29.7.16.23-.19.19-.47.04-.66-.14-.17-.7-.47-.82-.57-.08-.1-.12-.21-.08-.33.04-.07.96.05.56-.21,0-.03-.56-.73-.56-1.12,0-.31.16-.64.49-.64.23,0,.52.24.8.67.21.29.37.62.54,1.02,0,0,1.53,2.16,2.37,1.46.41-.34-.8-1.58.33-1.17,1.13.42,1.93-.08,1.79-.71ZM13.38,17.95c-1.12-1.04-1.72-3.16-1.64-3.2.1-.09.85-.71,1.75,1.4.27.62-.04,1.8-.12,1.8Z"/>
    <path class="cls-2" d="M41.76,21.16c-.14-.62-1.88.88-1.22-.71.66-1.58-1.68-.6-1.68-.6-.29.1-1.02.1-1.42.04-.56-.1-1.01-.33-1.01-.61,0-.26.16-.43.56-.62.37-.17,1.66-.21,1.7-.28.04-.03-.23-.47-.19-.55.04-.07,1.32-.1,1.38-.24.16-.36-.7-.86-1.27-.79-.76.14-1.01.14-1.05.07-.08-.07.45-.7.12-.86-.04-.03-1.5.62-1.74,1.12-.2.47-.26,1.33-.16,1.69,0,.17,0,.35-.1.38-.08.05-1.09-.74-1.09-.78-.04-.12.04-.19.08-.26.37-.43.52-1.07.37-1.73-.19-1.04-1.05-1.87-1.7-2.33-.74-.77,1.01-1.47.94-1.37-.1.16-.36,1.52.98,1.4.6-.05,1.01-.43,1.05-1,.08-.71-.45-1.33-1.35-1.4-1.13-.1-3,1.04-2.96,2.8.05,1.89,1.83,3.82,1.83,3.86,0,.07-1.74.66-1.75.1,0-.29.22-.54.53-.72l-.2-.31c-.41.24-.83.58-.72,1.07.21.98,2.42.24,2.46.24.1,0,.82.66.78.69,0,.03-1.69.93-1.69,1.83,0,.64.79,2,1.13,1.66.06-.06.37-.69.53-.69.08,0,.2.04.27.23.1.21.33.64.45.78.14.16.45.29.7.16.23-.19.19-.47.04-.66-.14-.17-.7-.47-.82-.57-.08-.1-.12-.21-.08-.33.04-.07.96.05.56-.21,0-.03-.56-.73-.56-1.12,0-.31.16-.64.49-.64.23,0,.52.24.8.67.21.29.37.62.54,1.02,0,0,1.53,2.16,2.37,1.46.41-.34-.8-1.58.33-1.17,1.13.42,1.93-.08,1.79-.71ZM34.24,17.95c-1.12-1.04-1.72-3.16-1.64-3.2.1-.09.85-.71,1.75,1.4.27.62-.04,1.8-.12,1.8Z"/>
  </g>
  <g>
    <rect class="cls-1" x="41.86" width="41.86" height="37.12"/>
    <path class="cls-2" d="M71.38,13.26c-1.13.41.08-.82-.32-1.17-.84-.71-2.38,1.44-2.38,1.44-.18.4-.34.72-.56,1.02-.28.43-.57.67-.8.67-.33,0-.48-.33-.48-.64,0-.4.57-1.09.57-1.12.4-.26-.53-.14-.56-.21-.04-.12,0-.23.08-.33.12-.1.69-.39.82-.56.16-.19.2-.46-.03-.66-.25-.14-.56,0-.7.15-.12.14-.36.57-.46.78-.08.19-.19.22-.27.22-.15,0-.46-.64-.52-.7-.34-.34-1.14,1.01-1.14,1.65,0,.9,1.68,1.81,1.68,1.84.04.04-.69.69-.78.69-.04,0-2.24-.75-2.46.23-.11.49.31.83.71,1.08l.19-.31c-.31-.19-.53-.44-.52-.73.02-.55,1.76.05,1.75.12,0,.04-1.81,1.96-1.87,3.85-.05,1.76,1.81,2.92,2.94,2.82.9-.06,1.43-.68,1.36-1.39-.03-.57-.44-.95-1.04-1.01-1.33-.12-1.08,1.24-.99,1.4.08.1-1.67-.61-.92-1.37.65-.46,1.51-1.29,1.72-2.32.16-.65.01-1.3-.36-1.73-.04-.07-.11-.14-.07-.26,0-.04,1.02-.82,1.1-.77.1.03.09.21.09.38-.1.36-.05,1.23.14,1.7.23.5,1.69,1.17,1.72,1.14.34-.16-.19-.8-.11-.87.04-.07.29-.07,1.05.08.57.07,1.43-.42,1.28-.79-.06-.14-1.34-.18-1.38-.25-.04-.09.24-.52.2-.55-.04-.07-1.33-.11-1.7-.29-.41-.19-.56-.37-.56-.63,0-.28.45-.5,1.02-.6.41-.07,1.13-.06,1.42.04,0,0,2.34,1,1.69-.59-.64-1.59,1.08-.08,1.23-.7.15-.62-.65-1.13-1.78-.72ZM65.7,18.94c-.93,2.11-1.67,1.48-1.77,1.39-.08-.03.54-2.16,1.67-3.19.08,0,.37,1.18.1,1.8Z"/>
    <path class="cls-2" d="M50.42,13.26c-1.13.41.09-.82-.32-1.17-.84-.71-2.38,1.44-2.38,1.44-.18.4-.34.72-.56,1.02-.27.43-.57.67-.8.67-.33,0-.48-.33-.48-.64,0-.4.57-1.09.57-1.12.4-.26-.53-.14-.56-.21-.04-.12,0-.23.08-.33.12-.1.69-.39.83-.56.16-.19.2-.46-.04-.66-.25-.14-.56,0-.7.15-.12.14-.35.57-.45.78-.08.19-.2.22-.27.22-.16,0-.47-.64-.52-.7-.34-.34-1.14,1.01-1.14,1.65,0,.9,1.68,1.81,1.68,1.84.04.04-.69.69-.79.69-.04,0-2.24-.75-2.46.23-.11.49.31.83.71,1.08l.2-.31c-.31-.19-.53-.44-.52-.73.02-.55,1.76.05,1.76.12,0,.04-1.81,1.96-1.87,3.85-.06,1.76,1.81,2.92,2.94,2.82.9-.06,1.43-.68,1.35-1.39-.03-.57-.44-.95-1.04-1.01-1.33-.12-1.08,1.24-.99,1.4.08.1-1.67-.61-.92-1.37.65-.46,1.51-1.29,1.72-2.32.16-.65.01-1.3-.35-1.73-.04-.07-.12-.14-.08-.26,0-.04,1.02-.82,1.1-.77.1.03.09.21.09.38-.1.36-.05,1.23.14,1.7.23.5,1.69,1.17,1.73,1.14.34-.16-.19-.8-.11-.87.04-.07.29-.07,1.05.08.56.07,1.43-.42,1.27-.79-.06-.14-1.34-.18-1.38-.25-.04-.09.24-.52.2-.55-.04-.07-1.32-.11-1.7-.29-.41-.19-.56-.37-.56-.63,0-.28.45-.5,1.02-.6.41-.07,1.13-.06,1.42.04,0,0,2.33,1,1.69-.59-.64-1.59,1.08-.08,1.23-.7.14-.62-.65-1.13-1.78-.72ZM44.75,18.94c-.92,2.11-1.67,1.48-1.77,1.39-.08-.03.54-2.16,1.67-3.19.08,0,.37,1.18.1,1.8Z"/>
    <path class="cls-2" d="M62.76,21.16c-.14-.62-1.88.88-1.22-.71.66-1.58-1.68-.6-1.68-.6-.29.1-1.02.1-1.42.04-.56-.1-1.02-.33-1.02-.61,0-.26.16-.43.57-.62.37-.17,1.66-.21,1.7-.28.04-.03-.23-.47-.19-.55.04-.07,1.32-.1,1.38-.24.16-.36-.7-.86-1.27-.79-.76.14-1.01.14-1.05.07-.08-.07.45-.7.12-.86-.04-.03-1.5.62-1.74,1.12-.2.47-.26,1.33-.16,1.69,0,.17,0,.35-.1.38-.08.05-1.09-.74-1.09-.78-.04-.12.04-.19.08-.26.37-.43.52-1.07.37-1.73-.19-1.04-1.05-1.87-1.7-2.33-.74-.77,1.01-1.47.94-1.37-.1.16-.36,1.52.98,1.4.6-.05,1.01-.43,1.05-1,.08-.71-.45-1.33-1.35-1.4-1.13-.1-3,1.04-2.96,2.8.05,1.89,1.83,3.82,1.83,3.86,0,.07-1.74.66-1.75.1,0-.29.22-.54.53-.72l-.2-.31c-.41.24-.83.58-.72,1.07.21.98,2.42.24,2.46.24.1,0,.82.66.78.69,0,.03-1.7.93-1.7,1.83,0,.64.79,2,1.13,1.66.06-.06.37-.69.53-.69.08,0,.19.04.27.23.1.21.33.64.45.78.14.16.45.29.7.16.23-.19.19-.47.04-.66-.14-.17-.7-.47-.82-.57-.08-.1-.12-.21-.08-.33.04-.07.96.05.56-.21,0-.03-.56-.73-.56-1.12,0-.31.16-.64.49-.64.23,0,.52.24.8.67.21.29.37.62.54,1.02,0,0,1.53,2.16,2.37,1.46.41-.34-.8-1.58.33-1.17,1.13.42,1.93-.08,1.79-.71ZM55.23,17.95c-1.12-1.04-1.72-3.16-1.64-3.2.1-.09.85-.71,1.75,1.4.27.62-.04,1.8-.12,1.8Z"/>
    <path class="cls-2" d="M83.62,21.16c-.14-.62-1.88.88-1.22-.71.66-1.58-1.68-.6-1.68-.6-.29.1-1.02.1-1.42.04-.56-.1-1.01-.33-1.01-.61,0-.26.16-.43.56-.62.37-.17,1.66-.21,1.7-.28.04-.03-.23-.47-.19-.55.04-.07,1.32-.1,1.38-.24.16-.36-.7-.86-1.27-.79-.76.14-1.01.14-1.05.07-.08-.07.45-.7.12-.86-.04-.03-1.5.62-1.74,1.12-.2.47-.26,1.33-.16,1.69,0,.17,0,.35-.1.38-.08.05-1.09-.74-1.09-.78-.04-.12.04-.19.08-.26.37-.43.52-1.07.37-1.73-.19-1.04-1.05-1.87-1.7-2.33-.74-.77,1.01-1.47.94-1.37-.1.16-.36,1.52.98,1.4.6-.05,1.01-.43,1.05-1,.08-.71-.45-1.33-1.35-1.4-1.13-.1-3,1.04-2.96,2.8.05,1.89,1.83,3.82,1.83,3.86,0,.07-1.74.66-1.75.1,0-.29.22-.54.53-.72l-.2-.31c-.41.24-.83.58-.72,1.07.21.98,2.42.24,2.46.24.1,0,.82.66.78.69,0,.03-1.69.93-1.69,1.83,0,.64.79,2,1.13,1.66.06-.06.37-.69.53-.69.08,0,.2.04.27.23.1.21.33.64.45.78.14.16.45.29.7.16.23-.19.19-.47.04-.66-.14-.17-.7-.47-.82-.57-.08-.1-.12-.21-.08-.33.04-.07.96.05.56-.21,0-.03-.56-.73-.56-1.12,0-.31.16-.64.49-.64.23,0,.52.24.8.67.21.29.37.62.54,1.02,0,0,1.53,2.16,2.37,1.46.41-.34-.8-1.58.33-1.17,1.13.42,1.93-.08,1.79-.71ZM76.09,17.95c-1.12-1.04-1.72-3.16-1.64-3.2.1-.09.85-.71,1.75,1.4.27.62-.04,1.8-.12,1.8Z"/>
  </g>
  <g>
    <rect class="cls-1" x="83.71" width="41.86" height="37.12"/>
    <path class="cls-2" d="M113.23,13.26c-1.13.41.08-.82-.32-1.17-.84-.71-2.38,1.44-2.38,1.44-.18.4-.34.72-.56,1.02-.28.43-.57.67-.8.67-.33,0-.48-.33-.48-.64,0-.4.57-1.09.57-1.12.4-.26-.53-.14-.56-.21-.04-.12,0-.23.08-.33.12-.1.69-.39.82-.56.16-.19.2-.46-.03-.66-.25-.14-.56,0-.7.15-.12.14-.36.57-.46.78-.08.19-.19.22-.27.22-.15,0-.46-.64-.52-.7-.34-.34-1.14,1.01-1.14,1.65,0,.9,1.68,1.81,1.68,1.84.04.04-.69.69-.78.69-.04,0-2.24-.75-2.46.23-.11.49.31.83.71,1.08l.19-.31c-.31-.19-.53-.44-.52-.73.02-.55,1.76.05,1.75.12,0,.04-1.81,1.96-1.87,3.85-.05,1.76,1.81,2.92,2.94,2.82.9-.06,1.43-.68,1.36-1.39-.03-.57-.44-.95-1.04-1.01-1.33-.12-1.08,1.24-.99,1.4.08.1-1.67-.61-.92-1.37.65-.46,1.51-1.29,1.72-2.32.16-.65.01-1.3-.36-1.73-.04-.07-.11-.14-.07-.26,0-.04,1.02-.82,1.1-.77.1.03.09.21.09.38-.1.36-.05,1.23.14,1.7.23.5,1.69,1.17,1.72,1.14.34-.16-.19-.8-.11-.87.04-.07.29-.07,1.05.08.57.07,1.43-.42,1.28-.79-.06-.14-1.34-.18-1.38-.25-.04-.09.24-.52.2-.55-.04-.07-1.33-.11-1.7-.29-.41-.19-.56-.37-.56-.63,0-.28.45-.5,1.02-.6.41-.07,1.13-.06,1.42.04,0,0,2.34,1,1.69-.59-.64-1.59,1.08-.08,1.23-.7.15-.62-.65-1.13-1.78-.72ZM107.56,18.94c-.93,2.11-1.67,1.48-1.77,1.39-.08-.03.54-2.16,1.67-3.19.08,0,.37,1.18.1,1.8Z"/>
    <path class="cls-2" d="M92.28,13.26c-1.13.41.09-.82-.32-1.17-.84-.71-2.38,1.44-2.38,1.44-.18.4-.34.72-.56,1.02-.27.43-.57.67-.8.67-.33,0-.48-.33-.48-.64,0-.4.57-1.09.57-1.12.4-.26-.53-.14-.56-.21-.04-.12,0-.23.08-.33.12-.1.69-.39.83-.56.16-.19.2-.46-.04-.66-.25-.14-.56,0-.7.15-.12.14-.35.57-.45.78-.08.19-.2.22-.27.22-.16,0-.47-.64-.52-.7-.34-.34-1.14,1.01-1.14,1.65,0,.9,1.68,1.81,1.68,1.84.04.04-.69.69-.79.69-.04,0-2.24-.75-2.46.23-.11.49.31.83.71,1.08l.2-.31c-.31-.19-.53-.44-.52-.73.02-.55,1.76.05,1.76.12,0,.04-1.81,1.96-1.87,3.85-.06,1.76,1.81,2.92,2.94,2.82.9-.06,1.43-.68,1.35-1.39-.03-.57-.44-.95-1.04-1.01-1.33-.12-1.08,1.24-.99,1.4.08.1-1.67-.61-.92-1.37.65-.46,1.51-1.29,1.72-2.32.16-.65.01-1.3-.35-1.73-.04-.07-.12-.14-.08-.26,0-.04,1.02-.82,1.1-.77.1.03.09.21.09.38-.1.36-.05,1.23.14,1.7.23.5,1.69,1.17,1.73,1.14.34-.16-.19-.8-.11-.87.04-.07.29-.07,1.05.08.56.07,1.43-.42,1.27-.79-.06-.14-1.34-.18-1.38-.25-.04-.09.24-.52.2-.55-.04-.07-1.32-.11-1.7-.29-.41-.19-.56-.37-.56-.63,0-.28.45-.5,1.02-.6.41-.07,1.13-.06,1.42.04,0,0,2.33,1,1.69-.59-.64-1.59,1.08-.08,1.23-.7.14-.62-.65-1.13-1.78-.72ZM86.6,18.94c-.92,2.11-1.67,1.48-1.77,1.39-.08-.03.54-2.16,1.67-3.19.08,0,.37,1.18.1,1.8Z"/>
    <path class="cls-2" d="M104.61,21.16c-.14-.62-1.88.88-1.22-.71.66-1.58-1.68-.6-1.68-.6-.29.1-1.02.1-1.42.04-.56-.1-1.02-.33-1.02-.61,0-.26.16-.43.57-.62.37-.17,1.66-.21,1.7-.28.04-.03-.23-.47-.19-.55.04-.07,1.32-.1,1.38-.24.16-.36-.7-.86-1.27-.79-.76.14-1.01.14-1.05.07-.08-.07.45-.7.12-.86-.04-.03-1.5.62-1.74,1.12-.2.47-.26,1.33-.16,1.69,0,.17,0,.35-.1.38-.08.05-1.09-.74-1.09-.78-.04-.12.04-.19.08-.26.37-.43.52-1.07.37-1.73-.19-1.04-1.05-1.87-1.7-2.33-.74-.77,1.01-1.47.94-1.37-.1.16-.36,1.52.98,1.4.6-.05,1.01-.43,1.05-1,.08-.71-.45-1.33-1.35-1.4-1.13-.1-3,1.04-2.96,2.8.05,1.89,1.83,3.82,1.83,3.86,0,.07-1.74.66-1.75.1,0-.29.22-.54.53-.72l-.2-.31c-.41.24-.83.58-.72,1.07.21.98,2.42.24,2.46.24.1,0,.82.66.78.69,0,.03-1.7.93-1.7,1.83,0,.64.79,2,1.13,1.66.06-.06.37-.69.53-.69.08,0,.19.04.27.23.1.21.33.64.45.78.14.16.45.29.7.16.23-.19.19-.47.04-.66-.14-.17-.7-.47-.82-.57-.08-.1-.12-.21-.08-.33.04-.07.96.05.56-.21,0-.03-.56-.73-.56-1.12,0-.31.16-.64.49-.64.23,0,.52.24.8.67.21.29.37.62.54,1.02,0,0,1.53,2.16,2.37,1.46.41-.34-.8-1.58.33-1.17,1.13.42,1.93-.08,1.79-.71ZM97.09,17.95c-1.12-1.04-1.72-3.16-1.64-3.2.1-.09.85-.71,1.75,1.4.27.62-.04,1.8-.12,1.8Z"/>
    <path class="cls-2" d="M125.47,21.16c-.14-.62-1.88.88-1.22-.71.66-1.58-1.68-.6-1.68-.6-.29.1-1.02.1-1.42.04-.56-.1-1.01-.33-1.01-.61,0-.26.16-.43.56-.62.37-.17,1.66-.21,1.7-.28.04-.03-.23-.47-.19-.55.04-.07,1.32-.1,1.38-.24.16-.36-.7-.86-1.27-.79-.76.14-1.01.14-1.05.07-.08-.07.45-.7.12-.86-.04-.03-1.5.62-1.74,1.12-.2.47-.26,1.33-.16,1.69,0,.17,0,.35-.1.38-.08.05-1.09-.74-1.09-.78-.04-.12.04-.19.08-.26.37-.43.52-1.07.37-1.73-.19-1.04-1.05-1.87-1.7-2.33-.74-.77,1.01-1.47.94-1.37-.1.16-.36,1.52.98,1.4.6-.05,1.01-.43,1.05-1,.08-.71-.45-1.33-1.35-1.4-1.13-.1-3,1.04-2.96,2.8.05,1.89,1.83,3.82,1.83,3.86,0,.07-1.74.66-1.75.1,0-.29.22-.54.53-.72l-.2-.31c-.41.24-.83.58-.72,1.07.21.98,2.42.24,2.46.24.1,0,.82.66.78.69,0,.03-1.69.93-1.69,1.83,0,.64.79,2,1.13,1.66.06-.06.37-.69.53-.69.08,0,.2.04.27.23.1.21.33.64.45.78.14.16.45.29.7.16.23-.19.19-.47.04-.66-.14-.17-.7-.47-.82-.57-.08-.1-.12-.21-.08-.33.04-.07.96.05.56-.21,0-.03-.56-.73-.56-1.12,0-.31.16-.64.49-.64.23,0,.52.24.8.67.21.29.37.62.54,1.02,0,0,1.53,2.16,2.37,1.46.41-.34-.8-1.58.33-1.17,1.13.42,1.93-.08,1.79-.71ZM117.95,17.95c-1.12-1.04-1.72-3.16-1.64-3.2.1-.09.85-.71,1.75,1.4.27.62-.04,1.8-.12,1.8Z"/>
  </g>
</svg>