<?xml version="1.0" encoding="UTF-8"?>
<svg id="Layer_1" data-name="Layer 1" xmlns="http://www.w3.org/2000/svg" viewBox="0 0 144 27.84">
  <defs>
    <style>
      .cls-1 {
        fill: none;
      }

      .cls-2 {
        fill: #b7dede;
      }
    </style>
  </defs>
  <g>
    <rect class="cls-1" width="28.8" height="27.84"/>
    <path class="cls-2" d="M20.31,9.95c-.78.31.06-.62-.22-.88-.58-.54-1.64,1.08-1.64,1.08-.12.3-.23.54-.38.76-.19.32-.39.5-.55.5-.23,0-.33-.25-.33-.48,0-.3.39-.81.4-.84.27-.19-.36-.11-.39-.16-.03-.09,0-.17.05-.25.08-.08.47-.29.57-.42.11-.14.14-.35-.02-.49-.17-.1-.39,0-.48.11-.08.1-.25.43-.31.58-.05.14-.13.17-.19.17-.11,0-.32-.48-.36-.52-.23-.26-.78.76-.79,1.24,0,.68,1.16,1.36,1.16,1.38.03.03-.47.52-.54.52-.03,0-1.54-.56-1.69.17-.08.37.21.62.49.81l.13-.23c-.21-.14-.36-.33-.36-.55.01-.41,1.21.03,1.21.09,0,.03-1.24,1.47-1.29,2.88-.04,1.32,1.25,2.19,2.02,2.11.62-.05.98-.51.93-1.04-.02-.43-.31-.72-.72-.76-.92-.09-.74.93-.68,1.05.05.08-1.15-.46-.63-1.03.45-.35,1.04-.97,1.18-1.74.11-.49,0-.97-.25-1.3-.03-.05-.08-.11-.05-.19,0-.03.7-.62.76-.58.07.03.07.16.06.28-.07.27-.03.92.1,1.27.16.38,1.16.88,1.19.85.23-.12-.13-.6-.07-.65.03-.05.2-.05.72.06.39.06.98-.32.88-.59-.04-.11-.92-.14-.95-.19-.03-.07.17-.39.14-.41-.03-.05-.91-.09-1.17-.22-.28-.14-.39-.28-.39-.47,0-.21.31-.37.7-.45.28-.05.78-.05.98.03,0,0,1.61.75,1.16-.44-.44-1.19.74-.06.85-.53.1-.47-.45-.85-1.22-.54ZM16.41,14.21c-.64,1.58-1.15,1.11-1.22,1.04-.05-.03.37-1.62,1.15-2.39.05,0,.26.88.07,1.35Z"/>
    <path class="cls-2" d="M5.89,9.95c-.78.31.06-.62-.22-.88-.58-.54-1.64,1.08-1.64,1.08-.12.3-.23.54-.38.76-.19.32-.39.5-.55.5-.23,0-.33-.25-.33-.48,0-.3.4-.81.4-.84.27-.19-.36-.11-.39-.16-.03-.09,0-.17.06-.25.08-.08.47-.29.57-.42.11-.14.13-.35-.02-.49-.17-.1-.39,0-.48.11-.08.1-.24.43-.31.58-.06.14-.14.17-.19.17-.11,0-.32-.48-.36-.52-.23-.26-.78.76-.79,1.24,0,.68,1.16,1.36,1.16,1.38.02.03-.47.52-.54.52-.03,0-1.54-.56-1.69.17-.08.37.21.62.49.81l.14-.23c-.21-.14-.37-.33-.36-.55.01-.41,1.21.03,1.21.09,0,.03-1.24,1.47-1.28,2.88-.04,1.32,1.24,2.19,2.02,2.11.62-.05.98-.51.93-1.04-.02-.43-.3-.72-.72-.76-.92-.09-.75.93-.68,1.05.05.08-1.15-.46-.64-1.03.45-.35,1.04-.97,1.18-1.74.11-.49,0-.97-.24-1.3-.03-.05-.08-.11-.05-.19,0-.03.7-.62.76-.58.07.03.07.16.07.28-.07.27-.04.92.1,1.27.16.38,1.16.88,1.19.85.23-.12-.13-.6-.08-.65.03-.05.2-.05.72.06.39.06.98-.32.88-.59-.04-.11-.92-.14-.95-.19-.03-.07.16-.39.14-.41-.03-.05-.91-.09-1.17-.22-.28-.14-.39-.28-.38-.47,0-.21.31-.37.7-.45.28-.05.78-.05.98.03,0,0,1.6.75,1.16-.44-.44-1.19.74-.06.85-.53.1-.47-.45-.85-1.22-.54ZM1.99,14.21c-.63,1.58-1.15,1.11-1.22,1.04-.05-.03.37-1.62,1.15-2.39.05,0,.26.88.07,1.35Z"/>
    <path class="cls-2" d="M14.38,15.87c-.1-.47-1.29.66-.84-.53.45-1.19-1.16-.45-1.16-.45-.2.08-.7.08-.98.03-.39-.08-.7-.25-.7-.45,0-.19.11-.32.39-.47.25-.13,1.14-.16,1.17-.21.03-.03-.16-.35-.13-.41.03-.05.91-.08.95-.18.11-.27-.48-.65-.87-.6-.52.1-.7.1-.73.05-.05-.05.31-.52.08-.65-.03-.03-1.03.47-1.19.84-.13.35-.18,1-.11,1.27,0,.13,0,.26-.07.29-.05.04-.75-.56-.75-.58-.03-.09.03-.14.05-.2.25-.32.36-.8.25-1.3-.13-.78-.72-1.4-1.17-1.75-.51-.57.7-1.1.64-1.02-.07.12-.25,1.14.67,1.05.41-.04.7-.32.72-.75.05-.53-.31-1-.93-1.05-.78-.08-2.07.78-2.04,2.1.03,1.41,1.26,2.87,1.26,2.89,0,.05-1.2.49-1.21.08,0-.22.15-.4.36-.54l-.14-.23c-.28.18-.57.44-.5.8.15.73,1.66.18,1.69.18.07,0,.56.49.54.52,0,.03-1.17.7-1.17,1.38,0,.48.54,1.5.78,1.24.04-.04.26-.52.36-.52.05,0,.13.03.19.17.07.16.23.48.31.58.09.12.31.22.48.12.16-.14.13-.35.03-.49-.09-.13-.48-.35-.56-.43-.05-.08-.08-.16-.05-.25.03-.05.66.04.39-.16,0-.03-.39-.54-.39-.84,0-.23.11-.48.34-.48.16,0,.36.18.55.51.15.22.25.47.37.77,0,0,1.05,1.62,1.63,1.09.28-.26-.55-1.19.22-.88.78.31,1.33-.06,1.23-.53ZM9.2,13.46c-.77-.78-1.18-2.37-1.13-2.4.07-.06.58-.53,1.21,1.05.18.47-.03,1.35-.08,1.35Z"/>
    <path class="cls-2" d="M28.74,15.87c-.1-.47-1.29.66-.84-.53.45-1.19-1.16-.45-1.16-.45-.2.08-.7.08-.98.03-.39-.08-.7-.25-.7-.45,0-.19.11-.32.39-.47.25-.13,1.14-.16,1.17-.21.03-.03-.16-.35-.13-.41.03-.05.91-.08.95-.18.11-.27-.48-.65-.87-.6-.52.1-.7.1-.73.05-.05-.05.31-.52.08-.65-.03-.03-1.03.47-1.19.84-.13.35-.18,1-.11,1.27,0,.13,0,.26-.07.29-.05.04-.75-.56-.75-.58-.03-.09.03-.14.05-.2.25-.32.36-.8.25-1.3-.13-.78-.72-1.4-1.17-1.75-.51-.57.7-1.1.64-1.02-.07.12-.25,1.14.67,1.05.41-.04.7-.32.72-.75.05-.53-.31-1-.93-1.05-.78-.08-2.07.78-2.04,2.1.03,1.41,1.26,2.87,1.26,2.89,0,.05-1.2.49-1.21.08,0-.22.15-.4.36-.54l-.14-.23c-.28.18-.57.44-.5.8.15.73,1.66.18,1.69.18.07,0,.56.49.54.52,0,.03-1.17.7-1.17,1.38,0,.48.54,1.5.78,1.24.04-.04.26-.52.36-.52.05,0,.14.03.19.17.07.16.23.48.31.58.09.12.31.22.48.12.16-.14.13-.35.03-.49-.09-.13-.48-.35-.56-.43-.05-.08-.08-.16-.05-.25.03-.05.66.04.39-.16,0-.03-.39-.54-.39-.84,0-.23.11-.48.34-.48.16,0,.36.18.55.51.15.22.25.47.37.77,0,0,1.05,1.62,1.63,1.09.28-.26-.55-1.19.22-.88.78.31,1.33-.06,1.23-.53ZM23.56,13.46c-.77-.78-1.18-2.37-1.13-2.4.07-.06.58-.53,1.21,1.05.18.47-.02,1.35-.08,1.35Z"/>
  </g>
  <g>
    <rect class="cls-1" x="28.8" width="28.8" height="27.84"/>
    <path class="cls-2" d="M49.11,9.95c-.78.31.06-.62-.22-.88-.58-.54-1.64,1.08-1.64,1.08-.12.3-.23.54-.38.76-.19.32-.39.5-.55.5-.23,0-.33-.25-.33-.48,0-.3.39-.81.4-.84.27-.19-.36-.11-.39-.16-.03-.09,0-.17.05-.25.08-.08.47-.29.57-.42.11-.14.14-.35-.02-.49-.17-.1-.39,0-.48.11-.08.1-.25.43-.31.58-.05.14-.13.17-.19.17-.11,0-.32-.48-.36-.52-.23-.26-.78.76-.79,1.24,0,.68,1.16,1.36,1.16,1.38.03.03-.47.52-.54.52-.03,0-1.54-.56-1.69.17-.08.37.21.62.49.81l.13-.23c-.21-.14-.36-.33-.36-.55.01-.41,1.21.03,1.21.09,0,.03-1.24,1.47-1.29,2.88-.04,1.32,1.25,2.19,2.02,2.11.62-.05.98-.51.93-1.04-.02-.43-.31-.72-.72-.76-.92-.09-.74.93-.68,1.05.05.08-1.15-.46-.63-1.03.45-.35,1.04-.97,1.18-1.74.11-.49,0-.97-.25-1.3-.03-.05-.08-.11-.05-.19,0-.03.7-.62.76-.58.07.03.07.16.06.28-.07.27-.03.92.1,1.27.16.38,1.16.88,1.19.85.23-.12-.13-.6-.07-.65.03-.05.2-.05.72.06.39.06.98-.32.88-.59-.04-.11-.92-.14-.95-.19-.03-.07.17-.39.14-.41-.03-.05-.91-.09-1.17-.22-.28-.14-.39-.28-.39-.47,0-.21.31-.37.7-.45.28-.05.78-.05.98.03,0,0,1.61.75,1.16-.44-.44-1.19.74-.06.85-.53.1-.47-.45-.85-1.22-.54ZM45.21,14.21c-.64,1.58-1.15,1.11-1.22,1.04-.05-.03.37-1.62,1.15-2.39.05,0,.26.88.07,1.35Z"/>
    <path class="cls-2" d="M34.69,9.95c-.78.31.06-.62-.22-.88-.58-.54-1.64,1.08-1.64,1.08-.12.3-.23.54-.38.76-.19.32-.39.5-.55.5-.23,0-.33-.25-.33-.48,0-.3.4-.81.4-.84.27-.19-.36-.11-.39-.16-.03-.09,0-.17.06-.25.08-.08.47-.29.57-.42.11-.14.13-.35-.02-.49-.17-.1-.39,0-.48.11-.08.1-.24.43-.31.58-.06.14-.14.17-.19.17-.11,0-.32-.48-.36-.52-.23-.26-.78.76-.79,1.24,0,.68,1.16,1.36,1.16,1.38.02.03-.47.52-.54.52-.03,0-1.54-.56-1.69.17-.08.37.21.62.49.81l.14-.23c-.21-.14-.37-.33-.36-.55.01-.41,1.21.03,1.21.09,0,.03-1.24,1.47-1.28,2.88-.04,1.32,1.24,2.19,2.02,2.11.62-.05.98-.51.93-1.04-.02-.43-.3-.72-.72-.76-.92-.09-.75.93-.68,1.05.05.08-1.15-.46-.64-1.03.45-.35,1.04-.97,1.18-1.74.11-.49,0-.97-.24-1.3-.03-.05-.08-.11-.05-.19,0-.03.7-.62.76-.58.07.03.07.16.07.28-.07.27-.04.92.1,1.27.16.38,1.16.88,1.19.85.23-.12-.13-.6-.08-.65.03-.05.2-.05.72.06.39.06.98-.32.88-.59-.04-.11-.92-.14-.95-.19-.03-.07.16-.39.14-.41-.03-.05-.91-.09-1.17-.22-.28-.14-.39-.28-.38-.47,0-.21.31-.37.7-.45.28-.05.78-.05.98.03,0,0,1.6.75,1.16-.44-.44-1.19.74-.06.85-.53.1-.47-.45-.85-1.22-.54ZM30.79,14.21c-.63,1.58-1.15,1.11-1.22,1.04-.05-.03.37-1.62,1.15-2.39.05,0,.26.88.07,1.35Z"/>
    <path class="cls-2" d="M43.18,15.87c-.1-.47-1.29.66-.84-.53.45-1.19-1.16-.45-1.16-.45-.2.08-.7.08-.98.03-.39-.08-.7-.25-.7-.45,0-.19.11-.32.39-.47.25-.13,1.14-.16,1.17-.21.03-.03-.16-.35-.13-.41.03-.05.91-.08.95-.18.11-.27-.48-.65-.87-.6-.52.1-.7.1-.73.05-.05-.05.31-.52.08-.65-.03-.03-1.03.47-1.19.84-.13.35-.18,1-.11,1.27,0,.13,0,.26-.07.29-.05.04-.75-.56-.75-.58-.03-.09.03-.14.05-.2.25-.32.36-.8.25-1.3-.13-.78-.72-1.4-1.17-1.75-.51-.57.7-1.1.64-1.02-.07.12-.25,1.14.67,1.05.41-.04.7-.32.72-.75.05-.53-.31-1-.93-1.05-.78-.08-2.07.78-2.04,2.1.03,1.41,1.26,2.87,1.26,2.89,0,.05-1.2.49-1.21.08,0-.22.15-.4.36-.54l-.14-.23c-.28.18-.57.44-.5.8.15.73,1.66.18,1.69.18.07,0,.56.49.54.52,0,.03-1.17.7-1.17,1.38,0,.48.54,1.5.78,1.24.04-.04.26-.52.36-.52.05,0,.13.03.19.17.07.16.23.48.31.58.09.12.31.22.48.12.16-.14.13-.35.03-.49-.09-.13-.48-.35-.56-.43-.05-.08-.08-.16-.05-.25.03-.05.66.04.39-.16,0-.03-.39-.54-.39-.84,0-.23.11-.48.34-.48.16,0,.36.18.55.51.15.22.25.47.37.77,0,0,1.05,1.62,1.63,1.09.28-.26-.55-1.19.22-.88.78.31,1.33-.06,1.23-.53ZM38,13.46c-.77-.78-1.18-2.37-1.13-2.4.07-.06.58-.53,1.21,1.05.18.47-.03,1.35-.08,1.35Z"/>
    <path class="cls-2" d="M57.54,15.87c-.1-.47-1.29.66-.84-.53.45-1.19-1.16-.45-1.16-.45-.2.08-.7.08-.98.03-.39-.08-.7-.25-.7-.45,0-.19.11-.32.39-.47.25-.13,1.14-.16,1.17-.21.03-.03-.16-.35-.13-.41.03-.05.91-.08.95-.18.11-.27-.48-.65-.87-.6-.52.1-.7.1-.73.05-.05-.05.31-.52.08-.65-.03-.03-1.03.47-1.19.84-.13.35-.18,1-.11,1.27,0,.13,0,.26-.07.29-.05.04-.75-.56-.75-.58-.03-.09.03-.14.05-.2.25-.32.36-.8.25-1.3-.13-.78-.72-1.4-1.17-1.75-.51-.57.7-1.1.64-1.02-.07.12-.25,1.14.67,1.05.41-.04.7-.32.72-.75.05-.53-.31-1-.93-1.05-.78-.08-2.07.78-2.04,2.1.03,1.41,1.26,2.87,1.26,2.89,0,.05-1.2.49-1.21.08,0-.22.15-.4.36-.54l-.14-.23c-.28.18-.57.44-.5.8.15.73,1.66.18,1.69.18.07,0,.56.49.54.52,0,.03-1.17.7-1.17,1.38,0,.48.54,1.5.78,1.24.04-.04.26-.52.36-.52.05,0,.14.03.19.17.07.16.23.48.31.58.09.12.31.22.48.12.16-.14.13-.35.03-.49-.09-.13-.48-.35-.56-.43-.05-.08-.08-.16-.05-.25.03-.05.66.04.39-.16,0-.03-.39-.54-.39-.84,0-.23.11-.48.34-.48.16,0,.36.18.55.51.15.22.25.47.37.77,0,0,1.05,1.62,1.63,1.09.28-.26-.55-1.19.22-.88.78.31,1.33-.06,1.23-.53ZM52.36,13.46c-.77-.78-1.18-2.37-1.13-2.4.07-.06.58-.53,1.21,1.05.18.47-.02,1.35-.08,1.35Z"/>
  </g>
  <g>
    <rect class="cls-1" x="57.6" width="28.8" height="27.84"/>
    <path class="cls-2" d="M77.91,9.95c-.78.31.06-.62-.22-.88-.58-.54-1.64,1.08-1.64,1.08-.12.3-.23.54-.38.76-.19.32-.39.5-.55.5-.23,0-.33-.25-.33-.48,0-.3.39-.81.4-.84.27-.19-.36-.11-.39-.16-.03-.09,0-.17.05-.25.08-.08.47-.29.57-.42.11-.14.14-.35-.02-.49-.17-.1-.39,0-.48.11-.08.1-.25.43-.31.58-.05.14-.13.17-.19.17-.11,0-.32-.48-.36-.52-.23-.26-.78.76-.79,1.24,0,.68,1.16,1.36,1.16,1.38.03.03-.47.52-.54.52-.03,0-1.54-.56-1.69.17-.08.37.21.62.49.81l.13-.23c-.21-.14-.36-.33-.36-.55.01-.41,1.21.03,1.21.09,0,.03-1.24,1.47-1.29,2.88-.04,1.32,1.25,2.19,2.02,2.11.62-.05.98-.51.93-1.04-.02-.43-.31-.72-.72-.76-.92-.09-.74.93-.68,1.05.05.08-1.15-.46-.63-1.03.45-.35,1.04-.97,1.18-1.74.11-.49,0-.97-.25-1.3-.03-.05-.08-.11-.05-.19,0-.03.7-.62.76-.58.07.03.07.16.06.28-.07.27-.03.92.1,1.27.16.38,1.16.88,1.19.85.23-.12-.13-.6-.07-.65.03-.05.2-.05.72.06.39.06.98-.32.88-.59-.04-.11-.92-.14-.95-.19-.03-.07.17-.39.14-.41-.03-.05-.91-.09-1.17-.22-.28-.14-.39-.28-.39-.47,0-.21.31-.37.7-.45.28-.05.78-.05.98.03,0,0,1.61.75,1.16-.44-.44-1.19.74-.06.85-.53.1-.47-.45-.85-1.22-.54ZM74.01,14.21c-.64,1.58-1.15,1.11-1.22,1.04-.05-.03.37-1.62,1.15-2.39.05,0,.26.88.07,1.35Z"/>
    <path class="cls-2" d="M63.49,9.95c-.78.31.06-.62-.22-.88-.58-.54-1.64,1.08-1.64,1.08-.12.3-.23.54-.38.76-.19.32-.39.5-.55.5-.23,0-.33-.25-.33-.48,0-.3.4-.81.4-.84.27-.19-.36-.11-.39-.16-.03-.09,0-.17.06-.25.08-.08.47-.29.57-.42.11-.14.13-.35-.02-.49-.17-.1-.39,0-.48.11-.08.1-.24.43-.31.58-.06.14-.14.17-.19.17-.11,0-.32-.48-.36-.52-.23-.26-.78.76-.79,1.24,0,.68,1.16,1.36,1.16,1.38.02.03-.47.52-.54.52-.03,0-1.54-.56-1.69.17-.08.37.21.62.49.81l.14-.23c-.21-.14-.37-.33-.36-.55.01-.41,1.21.03,1.21.09,0,.03-1.24,1.47-1.28,2.88-.04,1.32,1.24,2.19,2.02,2.11.62-.05.98-.51.93-1.04-.02-.43-.3-.72-.72-.76-.92-.09-.75.93-.68,1.05.05.08-1.15-.46-.64-1.03.45-.35,1.04-.97,1.18-1.74.11-.49,0-.97-.24-1.3-.03-.05-.08-.11-.05-.19,0-.03.7-.62.76-.58.07.03.07.16.07.28-.07.27-.04.92.1,1.27.16.38,1.16.88,1.19.85.23-.12-.13-.6-.08-.65.03-.05.2-.05.72.06.39.06.98-.32.88-.59-.04-.11-.92-.14-.95-.19-.03-.07.16-.39.14-.41-.03-.05-.91-.09-1.17-.22-.28-.14-.39-.28-.38-.47,0-.21.31-.37.7-.45.28-.05.78-.05.98.03,0,0,1.6.75,1.16-.44-.44-1.19.74-.06.85-.53.1-.47-.45-.85-1.22-.54ZM59.59,14.21c-.63,1.58-1.15,1.11-1.22,1.04-.05-.03.37-1.62,1.15-2.39.05,0,.26.88.07,1.35Z"/>
    <path class="cls-2" d="M71.98,15.87c-.1-.47-1.29.66-.84-.53.45-1.19-1.16-.45-1.16-.45-.2.08-.7.08-.98.03-.39-.08-.7-.25-.7-.45,0-.19.11-.32.39-.47.25-.13,1.14-.16,1.17-.21.03-.03-.16-.35-.13-.41.03-.05.91-.08.95-.18.11-.27-.48-.65-.87-.6-.52.1-.7.1-.73.05-.05-.05.31-.52.08-.65-.03-.03-1.03.47-1.19.84-.13.35-.18,1-.11,1.27,0,.13,0,.26-.07.29-.05.04-.75-.56-.75-.58-.03-.09.03-.14.05-.2.25-.32.36-.8.25-1.3-.13-.78-.72-1.4-1.17-1.75-.51-.57.7-1.1.64-1.02-.07.12-.25,1.14.67,1.05.41-.04.7-.32.72-.75.05-.53-.31-1-.93-1.05-.78-.08-2.07.78-2.04,2.1.03,1.41,1.26,2.87,1.26,2.89,0,.05-1.2.49-1.21.08,0-.22.15-.4.36-.54l-.14-.23c-.28.18-.57.44-.5.8.15.73,1.66.18,1.69.18.07,0,.56.49.54.52,0,.03-1.17.7-1.17,1.38,0,.48.54,1.5.78,1.24.04-.04.26-.52.36-.52.05,0,.13.03.19.17.07.16.23.48.31.58.09.12.31.22.48.12.16-.14.13-.35.03-.49-.09-.13-.48-.35-.56-.43-.05-.08-.08-.16-.05-.25.03-.05.66.04.39-.16,0-.03-.39-.54-.39-.84,0-.23.11-.48.34-.48.16,0,.36.18.55.51.15.22.25.47.37.77,0,0,1.05,1.62,1.63,1.09.28-.26-.55-1.19.22-.88.78.31,1.33-.06,1.23-.53ZM66.8,13.46c-.77-.78-1.18-2.37-1.13-2.4.07-.06.58-.53,1.21,1.05.18.47-.03,1.35-.08,1.35Z"/>
    <path class="cls-2" d="M86.34,15.87c-.1-.47-1.29.66-.84-.53.45-1.19-1.16-.45-1.16-.45-.2.08-.7.08-.98.03-.39-.08-.7-.25-.7-.45,0-.19.11-.32.39-.47.25-.13,1.14-.16,1.17-.21.03-.03-.16-.35-.13-.41.03-.05.91-.08.95-.18.11-.27-.48-.65-.87-.6-.52.1-.7.1-.73.05-.05-.05.31-.52.08-.65-.03-.03-1.03.47-1.19.84-.13.35-.18,1-.11,1.27,0,.13,0,.26-.07.29-.05.04-.75-.56-.75-.58-.03-.09.03-.14.05-.2.25-.32.36-.8.25-1.3-.13-.78-.72-1.4-1.17-1.75-.51-.57.7-1.1.64-1.02-.07.12-.25,1.14.67,1.05.41-.04.7-.32.72-.75.05-.53-.31-1-.93-1.05-.78-.08-2.07.78-2.04,2.1.03,1.41,1.26,2.87,1.26,2.89,0,.05-1.2.49-1.21.08,0-.22.15-.4.36-.54l-.14-.23c-.28.18-.57.44-.5.8.15.73,1.66.18,1.69.18.07,0,.56.49.54.52,0,.03-1.17.7-1.17,1.38,0,.48.54,1.5.78,1.24.04-.04.26-.52.36-.52.05,0,.14.03.19.17.07.16.23.48.31.58.09.12.31.22.48.12.16-.14.13-.35.03-.49-.09-.13-.48-.35-.56-.43-.05-.08-.08-.16-.05-.25.03-.05.66.04.39-.16,0-.03-.39-.54-.39-.84,0-.23.11-.48.34-.48.16,0,.36.18.55.51.15.22.25.47.37.77,0,0,1.05,1.62,1.63,1.09.28-.26-.55-1.19.22-.88.78.31,1.33-.06,1.23-.53ZM81.16,13.46c-.77-.78-1.18-2.37-1.13-2.4.07-.06.58-.53,1.21,1.05.18.47-.02,1.35-.08,1.35Z"/>
  </g>
  <g>
    <rect class="cls-1" x="86.4" width="28.8" height="27.84"/>
    <path class="cls-2" d="M106.71,9.95c-.78.31.06-.62-.22-.88-.58-.54-1.64,1.08-1.64,1.08-.12.3-.23.54-.38.76-.19.32-.39.5-.55.5-.23,0-.33-.25-.33-.48,0-.3.39-.81.4-.84.27-.19-.36-.11-.39-.16-.03-.09,0-.17.05-.25.08-.08.47-.29.57-.42.11-.14.14-.35-.02-.49-.17-.1-.39,0-.48.11-.08.1-.25.43-.31.58-.05.14-.13.17-.19.17-.11,0-.32-.48-.36-.52-.23-.26-.78.76-.79,1.24,0,.68,1.16,1.36,1.16,1.38.03.03-.47.52-.54.52-.03,0-1.54-.56-1.69.17-.08.37.21.62.49.81l.13-.23c-.21-.14-.36-.33-.36-.55.01-.41,1.21.03,1.21.09,0,.03-1.24,1.47-1.29,2.88-.04,1.32,1.25,2.19,2.02,2.11.62-.05.98-.51.93-1.04-.02-.43-.31-.72-.72-.76-.92-.09-.74.93-.68,1.05.05.08-1.15-.46-.63-1.03.45-.35,1.04-.97,1.18-1.74.11-.49,0-.97-.25-1.3-.03-.05-.08-.11-.05-.19,0-.03.7-.62.76-.58.07.03.07.16.06.28-.07.27-.03.92.1,1.27.16.38,1.16.88,1.19.85.23-.12-.13-.6-.07-.65.03-.05.2-.05.72.06.39.06.98-.32.88-.59-.04-.11-.92-.14-.95-.19-.03-.07.17-.39.14-.41-.03-.05-.91-.09-1.17-.22-.28-.14-.39-.28-.39-.47,0-.21.31-.37.7-.45.28-.05.78-.05.98.03,0,0,1.61.75,1.16-.44-.44-1.19.74-.06.85-.53.1-.47-.45-.85-1.22-.54ZM102.81,14.21c-.64,1.58-1.15,1.11-1.22,1.04-.05-.03.37-1.62,1.15-2.39.05,0,.26.88.07,1.35Z"/>
    <path class="cls-2" d="M92.29,9.95c-.78.31.06-.62-.22-.88-.58-.54-1.64,1.08-1.64,1.08-.12.3-.23.54-.38.76-.19.32-.39.5-.55.5-.23,0-.33-.25-.33-.48,0-.3.4-.81.4-.84.27-.19-.36-.11-.39-.16-.03-.09,0-.17.06-.25.08-.08.47-.29.57-.42.11-.14.13-.35-.02-.49-.17-.1-.39,0-.48.11-.08.1-.24.43-.31.58-.06.14-.14.17-.19.17-.11,0-.32-.48-.36-.52-.23-.26-.78.76-.79,1.24,0,.68,1.16,1.36,1.16,1.38.02.03-.47.52-.54.52-.03,0-1.54-.56-1.69.17-.08.37.21.62.49.81l.14-.23c-.21-.14-.37-.33-.36-.55.01-.41,1.21.03,1.21.09,0,.03-1.24,1.47-1.28,2.88-.04,1.32,1.24,2.19,2.02,2.11.62-.05.98-.51.93-1.04-.02-.43-.3-.72-.72-.76-.92-.09-.75.93-.68,1.05.05.08-1.15-.46-.64-1.03.45-.35,1.04-.97,1.18-1.74.11-.49,0-.97-.24-1.3-.03-.05-.08-.11-.05-.19,0-.03.7-.62.76-.58.07.03.07.16.07.28-.07.27-.04.92.1,1.27.16.38,1.16.88,1.19.85.23-.12-.13-.6-.08-.65.03-.05.2-.05.72.06.39.06.98-.32.88-.59-.04-.11-.92-.14-.95-.19-.03-.07.16-.39.14-.41-.03-.05-.91-.09-1.17-.22-.28-.14-.39-.28-.38-.47,0-.21.31-.37.7-.45.28-.05.78-.05.98.03,0,0,1.6.75,1.16-.44-.44-1.19.74-.06.85-.53.1-.47-.45-.85-1.22-.54ZM88.39,14.21c-.63,1.58-1.15,1.11-1.22,1.04-.05-.03.37-1.62,1.15-2.39.05,0,.26.88.07,1.35Z"/>
    <path class="cls-2" d="M100.78,15.87c-.1-.47-1.29.66-.84-.53.45-1.19-1.16-.45-1.16-.45-.2.08-.7.08-.98.03-.39-.08-.7-.25-.7-.45,0-.19.11-.32.39-.47.25-.13,1.14-.16,1.17-.21.03-.03-.16-.35-.13-.41.03-.05.91-.08.95-.18.11-.27-.48-.65-.87-.6-.52.1-.7.1-.73.05-.05-.05.31-.52.08-.65-.03-.03-1.03.47-1.19.84-.13.35-.18,1-.11,1.27,0,.13,0,.26-.07.29-.05.04-.75-.56-.75-.58-.03-.09.03-.14.05-.2.25-.32.36-.8.25-1.3-.13-.78-.72-1.4-1.17-1.75-.51-.57.7-1.1.64-1.02-.07.12-.25,1.14.67,1.05.41-.04.7-.32.72-.75.05-.53-.31-1-.93-1.05-.78-.08-2.07.78-2.04,2.1.03,1.41,1.26,2.87,1.26,2.89,0,.05-1.2.49-1.21.08,0-.22.15-.4.36-.54l-.14-.23c-.28.18-.57.44-.5.8.15.73,1.66.18,1.69.18.07,0,.56.49.54.52,0,.03-1.17.7-1.17,1.38,0,.48.54,1.5.78,1.24.04-.04.26-.52.36-.52.05,0,.13.03.19.17.07.16.23.48.31.58.09.12.31.22.48.12.16-.14.13-.35.03-.49-.09-.13-.48-.35-.56-.43-.05-.08-.08-.16-.05-.25.03-.05.66.04.39-.16,0-.03-.39-.54-.39-.84,0-.23.11-.48.34-.48.16,0,.36.18.55.51.15.22.25.47.37.77,0,0,1.05,1.62,1.63,1.09.28-.26-.55-1.19.22-.88.78.31,1.33-.06,1.23-.53ZM95.6,13.46c-.77-.78-1.18-2.37-1.13-2.4.07-.06.58-.53,1.21,1.05.18.47-.03,1.35-.08,1.35Z"/>
    <path class="cls-2" d="M115.14,15.87c-.1-.47-1.29.66-.84-.53.45-1.19-1.16-.45-1.16-.45-.2.08-.7.08-.98.03-.39-.08-.7-.25-.7-.45,0-.19.11-.32.39-.47.25-.13,1.14-.16,1.17-.21.03-.03-.16-.35-.13-.41.03-.05.91-.08.95-.18.11-.27-.48-.65-.87-.6-.52.1-.7.1-.73.05-.05-.05.31-.52.08-.65-.03-.03-1.03.47-1.19.84-.13.35-.18,1-.11,1.27,0,.13,0,.26-.07.29-.05.04-.75-.56-.75-.58-.03-.09.03-.14.05-.2.25-.32.36-.8.25-1.3-.13-.78-.72-1.4-1.17-1.75-.51-.57.7-1.1.64-1.02-.07.12-.25,1.14.67,1.05.41-.04.7-.32.72-.75.05-.53-.31-1-.93-1.05-.78-.08-2.07.78-2.04,2.1.03,1.41,1.26,2.87,1.26,2.89,0,.05-1.2.49-1.21.08,0-.22.15-.4.36-.54l-.14-.23c-.28.18-.57.44-.5.8.15.73,1.66.18,1.69.18.07,0,.56.49.54.52,0,.03-1.17.7-1.17,1.38,0,.48.54,1.5.78,1.24.04-.04.26-.52.36-.52.05,0,.14.03.19.17.07.16.23.48.31.58.09.12.31.22.48.12.16-.14.13-.35.03-.49-.09-.13-.48-.35-.56-.43-.05-.08-.08-.16-.05-.25.03-.05.66.04.39-.16,0-.03-.39-.54-.39-.84,0-.23.11-.48.34-.48.16,0,.36.18.55.51.15.22.25.47.37.77,0,0,1.05,1.62,1.63,1.09.28-.26-.55-1.19.22-.88.78.31,1.33-.06,1.23-.53ZM109.96,13.46c-.77-.78-1.18-2.37-1.13-2.4.07-.06.58-.53,1.21,1.05.18.47-.02,1.35-.08,1.35Z"/>
  </g>
  <g>
    <rect class="cls-1" x="115.2" width="28.8" height="27.84"/>
    <path class="cls-2" d="M135.51,9.95c-.78.31.06-.62-.22-.88-.58-.54-1.64,1.08-1.64,1.08-.12.3-.23.54-.38.76-.19.32-.39.5-.55.5-.23,0-.33-.25-.33-.48,0-.3.39-.81.4-.84.27-.19-.36-.11-.39-.16-.03-.09,0-.17.05-.25.08-.08.47-.29.57-.42.11-.14.14-.35-.02-.49-.17-.1-.39,0-.48.11-.08.1-.25.43-.31.58-.05.14-.13.17-.19.17-.11,0-.32-.48-.36-.52-.23-.26-.78.76-.79,1.24,0,.68,1.16,1.36,1.16,1.38.03.03-.47.52-.54.52-.03,0-1.54-.56-1.69.17-.08.37.21.62.49.81l.13-.23c-.21-.14-.36-.33-.36-.55.01-.41,1.21.03,1.21.09,0,.03-1.24,1.47-1.29,2.88-.04,1.32,1.25,2.19,2.02,2.11.62-.05.98-.51.93-1.04-.02-.43-.31-.72-.72-.76-.92-.09-.74.93-.68,1.05.05.08-1.15-.46-.63-1.03.45-.35,1.04-.97,1.18-1.74.11-.49,0-.97-.25-1.3-.03-.05-.08-.11-.05-.19,0-.03.7-.62.76-.58.07.03.07.16.06.28-.07.27-.03.92.1,1.27.16.38,1.16.88,1.19.85.23-.12-.13-.6-.07-.65.03-.05.2-.05.72.06.39.06.98-.32.88-.59-.04-.11-.92-.14-.95-.19-.03-.07.17-.39.14-.41-.03-.05-.91-.09-1.17-.22-.28-.14-.39-.28-.39-.47,0-.21.31-.37.7-.45.28-.05.78-.05.98.03,0,0,1.61.75,1.16-.44-.44-1.19.74-.06.85-.53.1-.47-.45-.85-1.22-.54ZM131.61,14.21c-.64,1.58-1.15,1.11-1.22,1.04-.05-.03.37-1.62,1.15-2.39.05,0,.26.88.07,1.35Z"/>
    <path class="cls-2" d="M121.09,9.95c-.78.31.06-.62-.22-.88-.58-.54-1.64,1.08-1.64,1.08-.12.3-.23.54-.38.76-.19.32-.39.5-.55.5-.23,0-.33-.25-.33-.48,0-.3.4-.81.4-.84.27-.19-.36-.11-.39-.16-.03-.09,0-.17.06-.25.08-.08.47-.29.57-.42.11-.14.13-.35-.02-.49-.17-.1-.39,0-.48.11-.08.1-.24.43-.31.58-.06.14-.14.17-.19.17-.11,0-.32-.48-.36-.52-.23-.26-.78.76-.79,1.24,0,.68,1.16,1.36,1.16,1.38.02.03-.47.52-.54.52-.03,0-1.54-.56-1.69.17-.08.37.21.62.49.81l.14-.23c-.21-.14-.37-.33-.36-.55.01-.41,1.21.03,1.21.09,0,.03-1.24,1.47-1.28,2.88-.04,1.32,1.24,2.19,2.02,2.11.62-.05.98-.51.93-1.04-.02-.43-.3-.72-.72-.76-.92-.09-.75.93-.68,1.05.05.08-1.15-.46-.64-1.03.45-.35,1.04-.97,1.18-1.74.11-.49,0-.97-.24-1.3-.03-.05-.08-.11-.05-.19,0-.03.7-.62.76-.58.07.03.07.16.07.28-.07.27-.04.92.1,1.27.16.38,1.16.88,1.19.85.23-.12-.13-.6-.08-.65.03-.05.2-.05.72.06.39.06.98-.32.88-.59-.04-.11-.92-.14-.95-.19-.03-.07.16-.39.14-.41-.03-.05-.91-.09-1.17-.22-.28-.14-.39-.28-.38-.47,0-.21.31-.37.7-.45.28-.05.78-.05.98.03,0,0,1.6.75,1.16-.44-.44-1.19.74-.06.85-.53.1-.47-.45-.85-1.22-.54ZM117.19,14.21c-.63,1.58-1.15,1.11-1.22,1.04-.05-.03.37-1.62,1.15-2.39.05,0,.26.88.07,1.35Z"/>
    <path class="cls-2" d="M129.58,15.87c-.1-.47-1.29.66-.84-.53.45-1.19-1.16-.45-1.16-.45-.2.08-.7.08-.98.03-.39-.08-.7-.25-.7-.45,0-.19.11-.32.39-.47.25-.13,1.14-.16,1.17-.21.03-.03-.16-.35-.13-.41.03-.05.91-.08.95-.18.11-.27-.48-.65-.87-.6-.52.1-.7.1-.73.05-.05-.05.31-.52.08-.65-.03-.03-1.03.47-1.19.84-.13.35-.18,1-.11,1.27,0,.13,0,.26-.07.29-.05.04-.75-.56-.75-.58-.03-.09.03-.14.05-.2.25-.32.36-.8.25-1.3-.13-.78-.72-1.4-1.17-1.75-.51-.57.7-1.1.64-1.02-.07.12-.25,1.14.67,1.05.41-.04.7-.32.72-.75.05-.53-.31-1-.93-1.05-.78-.08-2.07.78-2.04,2.1.03,1.41,1.26,2.87,1.26,2.89,0,.05-1.2.49-1.21.08,0-.22.15-.4.36-.54l-.14-.23c-.28.18-.57.44-.5.8.15.73,1.66.18,1.69.18.07,0,.56.49.54.52,0,.03-1.17.7-1.17,1.38,0,.48.54,1.5.78,1.24.04-.04.26-.52.36-.52.05,0,.13.03.19.17.07.16.23.48.31.58.09.12.31.22.48.12.16-.14.13-.35.03-.49-.09-.13-.48-.35-.56-.43-.05-.08-.08-.16-.05-.25.03-.05.66.04.39-.16,0-.03-.39-.54-.39-.84,0-.23.11-.48.34-.48.16,0,.36.18.55.51.15.22.25.47.37.77,0,0,1.05,1.62,1.63,1.09.28-.26-.55-1.19.22-.88.78.31,1.33-.06,1.23-.53ZM124.4,13.46c-.77-.78-1.18-2.37-1.13-2.4.07-.06.58-.53,1.21,1.05.18.47-.03,1.35-.08,1.35Z"/>
    <path class="cls-2" d="M143.94,15.87c-.1-.47-1.29.66-.84-.53.45-1.19-1.16-.45-1.16-.45-.2.08-.7.08-.98.03-.39-.08-.7-.25-.7-.45,0-.19.11-.32.39-.47.25-.13,1.14-.16,1.17-.21.03-.03-.16-.35-.13-.41.03-.05.91-.08.95-.18.11-.27-.48-.65-.87-.6-.52.1-.7.1-.73.05-.05-.05.31-.52.08-.65-.03-.03-1.03.47-1.19.84-.13.35-.18,1-.11,1.27,0,.13,0,.26-.07.29-.05.04-.75-.56-.75-.58-.03-.09.03-.14.05-.2.25-.32.36-.8.25-1.3-.13-.78-.72-1.4-1.17-1.75-.51-.57.7-1.1.64-1.02-.07.12-.25,1.14.67,1.05.41-.04.7-.32.72-.75.05-.53-.31-1-.93-1.05-.78-.08-2.07.78-2.04,2.1.03,1.41,1.26,2.87,1.26,2.89,0,.05-1.2.49-1.21.08,0-.22.15-.4.36-.54l-.14-.23c-.28.18-.57.44-.5.8.15.73,1.66.18,1.69.18.07,0,.56.49.54.52,0,.03-1.17.7-1.17,1.38,0,.48.54,1.5.78,1.24.04-.04.26-.52.36-.52.05,0,.14.03.19.17.07.16.23.48.31.58.09.12.31.22.48.12.16-.14.13-.35.03-.49-.09-.13-.48-.35-.56-.43-.05-.08-.08-.16-.05-.25.03-.05.66.04.39-.16,0-.03-.39-.54-.39-.84,0-.23.11-.48.34-.48.16,0,.36.18.55.51.15.22.25.47.37.77,0,0,1.05,1.62,1.63,1.09.28-.26-.55-1.19.22-.88.78.31,1.33-.06,1.23-.53ZM138.76,13.46c-.77-.78-1.18-2.37-1.13-2.4.07-.06.58-.53,1.21,1.05.18.47-.02,1.35-.08,1.35Z"/>
  </g>
</svg>