<?xml version="1.0" encoding="UTF-8"?>
<svg id="Layer_1" data-name="Layer 1" xmlns="http://www.w3.org/2000/svg" viewBox="0 0 72.71 37.12">
  <defs>
    <style>
      .cls-1 {
        fill: none;
      }

      .cls-2 {
        fill: #f1cce1;
      }
    </style>
  </defs>
  <g>
    <rect class="cls-1" width="36.35" height="37.12"/>
    <path class="cls-2" d="M25.64,13.26c-.98.41.07-.82-.28-1.17-.73-.71-2.07,1.44-2.07,1.44-.16.4-.29.72-.48,1.02-.24.43-.49.67-.7.67-.29,0-.42-.33-.42-.64,0-.4.5-1.09.5-1.12.35-.26-.46-.14-.49-.21-.04-.12,0-.23.07-.33.1-.1.6-.39.72-.56.14-.19.17-.46-.03-.66-.22-.14-.49,0-.61.15-.1.14-.31.57-.4.78-.07.19-.17.22-.24.22-.13,0-.4-.64-.45-.7-.29-.34-.99,1.01-.99,1.65,0,.9,1.46,1.81,1.46,1.84.03.04-.6.69-.68.69-.03,0-1.94-.75-2.14.23-.1.49.27.83.62,1.08l.17-.31c-.27-.19-.46-.44-.45-.73.02-.55,1.52.05,1.52.12,0,.04-1.57,1.96-1.62,3.85-.05,1.76,1.57,2.92,2.56,2.82.78-.06,1.24-.68,1.18-1.39-.03-.57-.39-.95-.91-1.01-1.16-.12-.94,1.24-.86,1.4.07.1-1.45-.61-.8-1.37.56-.46,1.31-1.29,1.49-2.32.14-.65,0-1.3-.31-1.73-.03-.07-.1-.14-.07-.26,0-.04.89-.82.96-.77.08.03.08.21.08.38-.09.36-.04,1.23.12,1.7.2.5,1.47,1.17,1.5,1.14.29-.16-.16-.8-.09-.87.03-.07.25-.07.91.08.49.07,1.24-.42,1.11-.79-.05-.14-1.17-.18-1.2-.25-.03-.09.21-.52.17-.55-.03-.07-1.15-.11-1.47-.29-.35-.19-.49-.37-.49-.63,0-.28.39-.5.89-.6.35-.07.98-.06,1.23.04,0,0,2.03,1,1.47-.59-.56-1.59.94-.08,1.07-.7.13-.62-.56-1.13-1.54-.72ZM20.71,18.94c-.8,2.11-1.45,1.48-1.54,1.39-.07-.03.47-2.16,1.45-3.19.07,0,.32,1.18.09,1.8Z"/>
    <path class="cls-2" d="M7.44,13.26c-.98.41.08-.82-.28-1.17-.73-.71-2.07,1.44-2.07,1.44-.16.4-.29.72-.48,1.02-.24.43-.49.67-.7.67-.29,0-.42-.33-.42-.64,0-.4.5-1.09.5-1.12.35-.26-.46-.14-.49-.21-.03-.12,0-.23.07-.33.1-.1.6-.39.72-.56.13-.19.17-.46-.03-.66-.22-.14-.49,0-.61.15-.1.14-.31.57-.39.78-.07.19-.17.22-.24.22-.14,0-.4-.64-.45-.7-.29-.34-.99,1.01-.99,1.65,0,.9,1.46,1.81,1.46,1.84.03.04-.6.69-.68.69-.03,0-1.94-.75-2.14.23-.1.49.27.83.62,1.08l.17-.31c-.27-.19-.46-.44-.45-.73.02-.55,1.52.05,1.52.12,0,.04-1.57,1.96-1.62,3.85-.05,1.76,1.57,2.92,2.55,2.82.78-.06,1.24-.68,1.18-1.39-.03-.57-.38-.95-.91-1.01-1.16-.12-.94,1.24-.86,1.4.07.1-1.45-.61-.8-1.37.56-.46,1.31-1.29,1.49-2.32.14-.65,0-1.3-.31-1.73-.03-.07-.1-.14-.07-.26,0-.04.89-.82.96-.77.08.03.08.21.08.38-.09.36-.05,1.23.12,1.7.2.5,1.47,1.17,1.5,1.14.29-.16-.16-.8-.1-.87.03-.07.25-.07.91.08.49.07,1.24-.42,1.11-.79-.05-.14-1.17-.18-1.2-.25-.04-.09.21-.52.17-.55-.03-.07-1.15-.11-1.47-.29-.35-.19-.49-.37-.49-.63,0-.28.39-.5.88-.6.36-.07.98-.06,1.24.04,0,0,2.02,1,1.46-.59-.56-1.59.94-.08,1.07-.7.13-.62-.56-1.13-1.54-.72ZM2.51,18.94c-.8,2.11-1.45,1.48-1.54,1.39-.07-.03.47-2.16,1.45-3.19.07,0,.33,1.18.09,1.8Z"/>
    <path class="cls-2" d="M18.15,21.16c-.12-.62-1.63.88-1.06-.71.57-1.58-1.46-.6-1.46-.6-.26.1-.88.1-1.24.04-.49-.1-.88-.33-.88-.61,0-.26.14-.43.49-.62.32-.17,1.44-.21,1.47-.28.03-.03-.2-.47-.17-.55.03-.07,1.15-.1,1.2-.24.13-.36-.61-.86-1.1-.79-.66.14-.88.14-.92.07-.07-.07.39-.7.1-.86-.03-.03-1.3.62-1.51,1.12-.17.47-.22,1.33-.14,1.69,0,.17,0,.35-.09.38-.07.05-.95-.74-.95-.78-.04-.12.03-.19.07-.26.32-.43.46-1.07.32-1.73-.17-1.04-.91-1.87-1.47-2.33-.64-.77.88-1.47.81-1.37-.08.16-.31,1.52.85,1.4.52-.05.88-.43.91-1,.07-.71-.39-1.33-1.17-1.4-.98-.1-2.61,1.04-2.57,2.8.04,1.89,1.59,3.82,1.59,3.86,0,.07-1.51.66-1.52.1,0-.29.19-.54.46-.72l-.17-.31c-.36.24-.72.58-.63,1.07.19.98,2.1.24,2.13.24.09,0,.71.66.68.69,0,.03-1.47.93-1.47,1.83,0,.64.68,2,.98,1.66.05-.06.32-.69.46-.69.07,0,.17.04.24.23.09.21.29.64.39.78.12.16.39.29.61.16.2-.19.17-.47.03-.66-.12-.17-.61-.47-.71-.57-.07-.1-.1-.21-.07-.33.03-.07.84.05.49-.21,0-.03-.49-.73-.49-1.12,0-.31.13-.64.42-.64.2,0,.46.24.69.67.19.29.32.62.47,1.02,0,0,1.33,2.16,2.06,1.46.35-.34-.7-1.58.28-1.17.98.42,1.68-.08,1.55-.71ZM11.62,17.95c-.97-1.04-1.49-3.16-1.42-3.2.08-.09.74-.71,1.52,1.4.23.62-.03,1.8-.1,1.8Z"/>
    <path class="cls-2" d="M36.27,21.16c-.12-.62-1.63.88-1.06-.71.57-1.58-1.46-.6-1.46-.6-.25.1-.88.1-1.24.04-.49-.1-.88-.33-.88-.61,0-.26.13-.43.49-.62.32-.17,1.44-.21,1.47-.28.03-.03-.2-.47-.17-.55.03-.07,1.15-.1,1.2-.24.13-.36-.61-.86-1.1-.79-.66.14-.88.14-.92.07-.07-.07.39-.7.1-.86-.03-.03-1.3.62-1.51,1.12-.17.47-.22,1.33-.14,1.69,0,.17,0,.35-.09.38-.07.05-.95-.74-.95-.78-.04-.12.03-.19.07-.26.32-.43.46-1.07.32-1.73-.17-1.04-.91-1.87-1.47-2.33-.64-.77.88-1.47.81-1.37-.08.16-.31,1.52.85,1.4.52-.05.88-.43.91-1,.07-.71-.39-1.33-1.17-1.4-.98-.1-2.61,1.04-2.57,2.8.04,1.89,1.59,3.82,1.59,3.86,0,.07-1.51.66-1.52.1,0-.29.19-.54.46-.72l-.17-.31c-.36.24-.72.58-.63,1.07.19.98,2.1.24,2.13.24.09,0,.71.66.68.69,0,.03-1.47.93-1.47,1.83,0,.64.68,2,.98,1.66.05-.06.32-.69.46-.69.07,0,.17.04.24.23.09.21.29.64.39.78.12.16.39.29.61.16.2-.19.17-.47.03-.66-.12-.17-.61-.47-.71-.57-.07-.1-.1-.21-.07-.33.03-.07.84.05.49-.21,0-.03-.49-.73-.49-1.12,0-.31.13-.64.42-.64.2,0,.46.24.69.67.19.29.32.62.47,1.02,0,0,1.33,2.16,2.06,1.46.35-.34-.7-1.58.28-1.17.98.42,1.68-.08,1.55-.71ZM29.74,17.95c-.97-1.04-1.49-3.16-1.42-3.2.08-.09.74-.71,1.52,1.4.23.62-.03,1.8-.1,1.8Z"/>
  </g>
  <g>
    <rect class="cls-1" x="36.35" width="36.35" height="37.12"/>
    <path class="cls-2" d="M61.99,13.26c-.98.41.07-.82-.28-1.17-.73-.71-2.07,1.44-2.07,1.44-.16.4-.29.72-.48,1.02-.24.43-.49.67-.7.67-.29,0-.42-.33-.42-.64,0-.4.5-1.09.5-1.12.35-.26-.46-.14-.49-.21-.04-.12,0-.23.07-.33.1-.1.6-.39.72-.56.14-.19.17-.46-.03-.66-.22-.14-.49,0-.61.15-.1.14-.31.57-.4.78-.07.19-.17.22-.24.22-.13,0-.4-.64-.45-.7-.29-.34-.99,1.01-.99,1.65,0,.9,1.46,1.81,1.46,1.84.03.04-.6.69-.68.69-.03,0-1.94-.75-2.14.23-.1.49.27.83.62,1.08l.17-.31c-.27-.19-.46-.44-.45-.73.02-.55,1.52.05,1.52.12,0,.04-1.57,1.96-1.62,3.85-.05,1.76,1.57,2.92,2.56,2.82.78-.06,1.24-.68,1.18-1.39-.03-.57-.39-.95-.91-1.01-1.16-.12-.94,1.24-.86,1.4.07.1-1.45-.61-.8-1.37.56-.46,1.31-1.29,1.49-2.32.14-.65,0-1.3-.31-1.73-.03-.07-.1-.14-.07-.26,0-.04.89-.82.96-.77.08.03.08.21.08.38-.09.36-.04,1.23.12,1.7.2.5,1.47,1.17,1.5,1.14.29-.16-.16-.8-.09-.87.03-.07.25-.07.91.08.49.07,1.24-.42,1.11-.79-.05-.14-1.17-.18-1.2-.25-.03-.09.21-.52.17-.55-.03-.07-1.15-.11-1.47-.29-.35-.19-.49-.37-.49-.63,0-.28.39-.5.89-.6.35-.07.98-.06,1.23.04,0,0,2.03,1,1.47-.59-.56-1.59.94-.08,1.07-.7.13-.62-.56-1.13-1.54-.72ZM57.07,18.94c-.8,2.11-1.45,1.48-1.54,1.39-.07-.03.47-2.16,1.45-3.19.07,0,.32,1.18.09,1.8Z"/>
    <path class="cls-2" d="M43.79,13.26c-.98.41.08-.82-.28-1.17-.73-.71-2.07,1.44-2.07,1.44-.16.4-.29.72-.48,1.02-.24.43-.49.67-.7.67-.29,0-.42-.33-.42-.64,0-.4.5-1.09.5-1.12.35-.26-.46-.14-.49-.21-.03-.12,0-.23.07-.33.1-.1.6-.39.72-.56.13-.19.17-.46-.03-.66-.22-.14-.49,0-.61.15-.1.14-.31.57-.39.78-.07.19-.17.22-.24.22-.14,0-.4-.64-.45-.7-.29-.34-.99,1.01-.99,1.65,0,.9,1.46,1.81,1.46,1.84.03.04-.6.69-.68.69-.03,0-1.94-.75-2.14.23-.1.49.27.83.62,1.08l.17-.31c-.27-.19-.46-.44-.45-.73.02-.55,1.52.05,1.52.12,0,.04-1.57,1.96-1.62,3.85-.05,1.76,1.57,2.92,2.55,2.82.78-.06,1.24-.68,1.18-1.39-.03-.57-.38-.95-.91-1.01-1.16-.12-.94,1.24-.86,1.4.07.1-1.45-.61-.8-1.37.56-.46,1.31-1.29,1.49-2.32.14-.65,0-1.3-.31-1.73-.03-.07-.1-.14-.07-.26,0-.04.89-.82.96-.77.08.03.08.21.08.38-.09.36-.05,1.23.12,1.7.2.5,1.47,1.17,1.5,1.14.29-.16-.16-.8-.1-.87.03-.07.25-.07.91.08.49.07,1.24-.42,1.11-.79-.05-.14-1.17-.18-1.2-.25-.04-.09.21-.52.17-.55-.03-.07-1.15-.11-1.47-.29-.35-.19-.49-.37-.49-.63,0-.28.39-.5.88-.6.36-.07.98-.06,1.24.04,0,0,2.02,1,1.46-.59-.56-1.59.94-.08,1.07-.7.13-.62-.56-1.13-1.54-.72ZM38.87,18.94c-.8,2.11-1.45,1.48-1.54,1.39-.07-.03.47-2.16,1.45-3.19.07,0,.33,1.18.09,1.8Z"/>
    <path class="cls-2" d="M54.51,21.16c-.12-.62-1.63.88-1.06-.71.57-1.58-1.46-.6-1.46-.6-.26.1-.88.1-1.24.04-.49-.1-.88-.33-.88-.61,0-.26.14-.43.49-.62.32-.17,1.44-.21,1.47-.28.03-.03-.2-.47-.17-.55.03-.07,1.15-.1,1.2-.24.13-.36-.61-.86-1.1-.79-.66.14-.88.14-.92.07-.07-.07.39-.7.1-.86-.03-.03-1.3.62-1.51,1.12-.17.47-.22,1.33-.14,1.69,0,.17,0,.35-.09.38-.07.05-.95-.74-.95-.78-.04-.12.03-.19.07-.26.32-.43.46-1.07.32-1.73-.17-1.04-.91-1.87-1.47-2.33-.64-.77.88-1.47.81-1.37-.08.16-.31,1.52.85,1.4.52-.05.88-.43.91-1,.07-.71-.39-1.33-1.17-1.4-.98-.1-2.61,1.04-2.57,2.8.04,1.89,1.59,3.82,1.59,3.86,0,.07-1.51.66-1.52.1,0-.29.19-.54.46-.72l-.17-.31c-.36.24-.72.58-.63,1.07.19.98,2.1.24,2.13.24.09,0,.71.66.68.69,0,.03-1.47.93-1.47,1.83,0,.64.68,2,.98,1.66.05-.06.32-.69.46-.69.07,0,.17.04.24.23.09.21.29.64.39.78.12.16.39.29.61.16.2-.19.17-.47.03-.66-.12-.17-.61-.47-.71-.57-.07-.1-.1-.21-.07-.33.03-.07.84.05.49-.21,0-.03-.49-.73-.49-1.12,0-.31.13-.64.42-.64.2,0,.46.24.69.67.19.29.32.62.47,1.02,0,0,1.33,2.16,2.06,1.46.35-.34-.7-1.58.28-1.17.98.42,1.68-.08,1.55-.71ZM47.97,17.95c-.97-1.04-1.49-3.16-1.42-3.2.08-.09.74-.71,1.52,1.4.23.62-.03,1.8-.1,1.8Z"/>
    <path class="cls-2" d="M72.62,21.16c-.12-.62-1.63.88-1.06-.71.57-1.58-1.46-.6-1.46-.6-.25.1-.88.1-1.24.04-.49-.1-.88-.33-.88-.61,0-.26.13-.43.49-.62.32-.17,1.44-.21,1.47-.28.03-.03-.2-.47-.17-.55.03-.07,1.15-.1,1.2-.24.13-.36-.61-.86-1.1-.79-.66.14-.88.14-.92.07-.07-.07.39-.7.1-.86-.03-.03-1.3.62-1.51,1.12-.17.47-.22,1.33-.14,1.69,0,.17,0,.35-.09.38-.07.05-.95-.74-.95-.78-.04-.12.03-.19.07-.26.32-.43.46-1.07.32-1.73-.17-1.04-.91-1.87-1.47-2.33-.64-.77.88-1.47.81-1.37-.08.16-.31,1.52.85,1.4.52-.05.88-.43.91-1,.07-.71-.39-1.33-1.17-1.4-.98-.1-2.61,1.04-2.57,2.8.04,1.89,1.59,3.82,1.59,3.86,0,.07-1.51.66-1.52.1,0-.29.19-.54.46-.72l-.17-.31c-.36.24-.72.58-.63,1.07.19.98,2.1.24,2.13.24.09,0,.71.66.68.69,0,.03-1.47.93-1.47,1.83,0,.64.68,2,.98,1.66.05-.06.32-.69.46-.69.07,0,.17.04.24.23.09.21.29.64.39.78.12.16.39.29.61.16.2-.19.17-.47.03-.66-.12-.17-.61-.47-.71-.57-.07-.1-.1-.21-.07-.33.03-.07.84.05.49-.21,0-.03-.49-.73-.49-1.12,0-.31.13-.64.42-.64.2,0,.46.24.69.67.19.29.32.62.47,1.02,0,0,1.33,2.16,2.06,1.46.35-.34-.7-1.58.28-1.17.98.42,1.68-.08,1.55-.71ZM66.09,17.95c-.97-1.04-1.49-3.16-1.42-3.2.08-.09.74-.71,1.52,1.4.23.62-.03,1.8-.1,1.8Z"/>
  </g>
</svg>