<?xml version="1.0" encoding="UTF-8"?>
<svg id="Layer_1" data-name="Layer 1" xmlns="http://www.w3.org/2000/svg" viewBox="0 0 64.07 8.69">
  <defs>
    <style>
      .cls-1 {
        fill: #2b5654;
      }
    </style>
  </defs>
  <path class="cls-1" d="M.07,5.05c-.18.63.01,1.37.44,1.92.42.55,1,.96,1.64,1.22.64.25,1.37.37,2.14.25.69-.1,1.36-.34,1.96-.65,1.2-.62,2.16-1.49,3.05-2.26.83-.72,1.78-1.41,2.55-1.58.27-.06.53-.09.98.06.46.14,1.2.69,2.45,1.93.43.4.93.91,1.68,1.45.73.53,1.77,1.12,3.06,1.25,1.29.15,2.52-.21,3.45-.63.95-.43,1.72-.93,2.4-1.34,1.31-.8,2.49-1.36,3.35-1.65.86-.29,1.39-.36,1.39-.36,0,0,.44-.09,1.15-.1.7,0,1.69.12,2.53.59.4.21.83.57,1.41,1.1.58.51,1.3,1.18,2.36,1.67,1.08.51,2.34.59,3.32.41,1-.17,1.8-.51,2.47-.84,1.26-.65,2.09-1.32,2.81-1.77.71-.47,1.28-.76,1.75-.91.9-.29,1.67-.17,2.17-.05.52.13.95.31,1.4.57.46.27.95.61,1.48.96.53.35,1.1.72,1.75,1.02.66.3,1.33.51,2,.61,2.64.39,5.23-.57,6.87-2.59-1.19.51-2.31.64-3.33.57-1.02-.07-1.94-.34-2.75-.73-.82-.41-1.41-.92-2.32-1.74-.45-.4-.97-.87-1.65-1.33-.68-.47-1.55-.89-2.49-1.13-.92-.22-2.39-.49-4.32.1-1.89.56-3.57,2.08-5.14,2.91-.44.22-.91.4-1.34.47-.44.06-.74.03-1.07-.11-.34-.15-.81-.52-1.37-1.03-.55-.49-1.27-1.14-2.13-1.6-1.68-.92-3.32-1.07-4.44-1.07-1.12.01-1.79.16-1.79.16,0,0-.81.11-1.98.5-1.18.39-2.68,1.11-4.13,1.99-.71.43-1.37.84-1.96,1.1-.6.27-1.07.36-1.42.31-.69-.03-1.67-.86-2.46-1.63-1.19-1.16-2.43-2.3-3.83-2.78-1.39-.49-2.53-.35-3.23-.17-1.08.27-1.9.77-2.56,1.27-.66.5-1.18,1.03-1.63,1.54-.85.98-1.46,1.82-2.1,2.45-.32.32-.64.58-1,.8-.29.19-.69.32-1.14.35-.45.03-.94-.04-1.39-.26-.45-.22-.88-.62-1.02-1.27Z"/>
</svg>