<?xml version="1.0" encoding="UTF-8"?>
<svg id="Layer_1" data-name="Layer 1" xmlns="http://www.w3.org/2000/svg" viewBox="0 0 125.57 18.56">
  <defs>
    <style>
      .cls-1 {
        fill: none;
      }

      .cls-2 {
        fill: #b7dede;
      }
    </style>
  </defs>
  <g>
    <rect class="cls-1" width="17.94" height="18.56"/>
    <path class="cls-2" d="M12.65,6.63c-.49.2.04-.41-.14-.58-.36-.36-1.02.72-1.02.72-.08.2-.15.36-.24.51-.12.21-.24.33-.34.33-.14,0-.21-.17-.21-.32,0-.2.25-.54.25-.56.17-.13-.23-.07-.24-.11-.02-.06,0-.11.03-.17.05-.05.29-.2.35-.28.07-.09.09-.23-.01-.33-.11-.07-.24,0-.3.08-.05.07-.15.28-.2.39-.03.09-.08.11-.12.11-.07,0-.2-.32-.22-.35-.15-.17-.49.51-.49.83,0,.45.72.91.72.92.02.02-.29.34-.34.34-.02,0-.96-.37-1.05.11-.05.25.13.42.31.54l.08-.16c-.13-.1-.23-.22-.22-.36,0-.28.75.02.75.06,0,.02-.77.98-.8,1.92-.02.88.78,1.46,1.26,1.41.39-.03.61-.34.58-.7-.01-.29-.19-.48-.45-.51-.57-.06-.46.62-.42.7.03.05-.71-.31-.4-.69.28-.23.65-.64.74-1.16.07-.33,0-.65-.15-.87-.02-.04-.05-.07-.03-.13,0-.02.44-.41.47-.39.04.02.04.1.04.19-.04.18-.02.61.06.85.1.25.72.59.74.57.15-.08-.08-.4-.05-.43.02-.03.13-.03.45.04.24.04.61-.21.55-.39-.03-.07-.58-.09-.59-.13-.02-.04.1-.26.09-.28-.02-.04-.57-.06-.73-.15-.17-.1-.24-.18-.24-.31,0-.14.19-.25.44-.3.18-.03.49-.03.61.02,0,0,1,.5.72-.29-.27-.79.46-.04.53-.35.06-.31-.28-.56-.76-.36ZM10.22,9.47c-.4,1.05-.72.74-.76.69-.03-.02.23-1.08.71-1.59.03,0,.16.59.04.9Z"/>
    <path class="cls-2" d="M3.67,6.63c-.49.2.04-.41-.14-.58-.36-.36-1.02.72-1.02.72-.08.2-.14.36-.24.51-.12.21-.24.33-.34.33-.14,0-.21-.17-.21-.32,0-.2.25-.54.25-.56.17-.13-.23-.07-.24-.11-.02-.06,0-.11.03-.17.05-.05.29-.2.35-.28.07-.09.08-.23-.02-.33-.11-.07-.24,0-.3.08-.05.07-.15.28-.19.39-.03.09-.08.11-.12.11-.07,0-.2-.32-.22-.35-.15-.17-.49.51-.49.83,0,.45.72.91.72.92.02.02-.3.34-.34.34-.02,0-.96-.37-1.05.11-.05.25.13.42.31.54l.08-.16c-.13-.1-.23-.22-.22-.36,0-.28.75.02.75.06,0,.02-.77.98-.8,1.92-.02.88.78,1.46,1.26,1.41.38-.03.61-.34.58-.7-.01-.29-.19-.48-.45-.51-.57-.06-.46.62-.42.7.03.05-.71-.31-.4-.69.28-.23.65-.64.74-1.16.07-.33,0-.65-.15-.87-.02-.04-.05-.07-.03-.13,0-.02.44-.41.47-.39.04.02.04.1.04.19-.04.18-.02.61.06.85.1.25.72.59.74.57.14-.08-.08-.4-.05-.43.02-.03.12-.03.45.04.24.04.61-.21.55-.39-.03-.07-.58-.09-.59-.13-.02-.04.1-.26.08-.28-.02-.04-.57-.06-.73-.15-.17-.1-.24-.18-.24-.31,0-.14.19-.25.44-.3.18-.03.49-.03.61.02,0,0,1,.5.72-.29-.27-.79.46-.04.53-.35.06-.31-.28-.56-.76-.36ZM1.24,9.47c-.4,1.05-.72.74-.76.69-.03-.02.23-1.08.71-1.59.03,0,.16.59.04.9Z"/>
    <path class="cls-2" d="M8.96,10.58c-.06-.31-.81.44-.52-.35.28-.79-.72-.3-.72-.3-.13.05-.44.05-.61.02-.24-.05-.44-.16-.44-.3,0-.13.07-.22.24-.31.16-.09.71-.1.73-.14.02-.02-.1-.23-.08-.28.02-.03.57-.05.59-.12.07-.18-.3-.43-.54-.4-.33.07-.43.07-.45.03-.03-.03.19-.35.05-.43-.02-.02-.64.31-.74.56-.08.23-.11.67-.07.85,0,.09,0,.17-.04.19-.03.03-.47-.37-.47-.39-.02-.06.02-.09.03-.13.16-.21.22-.54.16-.86-.08-.52-.45-.93-.73-1.17-.32-.38.43-.73.4-.68-.04.08-.15.76.42.7.26-.03.43-.22.45-.5.03-.35-.19-.67-.58-.7-.48-.05-1.29.52-1.27,1.4.02.94.79,1.91.79,1.93,0,.03-.75.33-.75.05,0-.15.09-.27.23-.36l-.08-.16c-.18.12-.36.29-.31.54.09.49,1.04.12,1.05.12.04,0,.35.33.33.35,0,.02-.73.47-.73.92,0,.32.34,1,.48.83.03-.03.16-.35.23-.35.03,0,.08.02.12.11.04.1.14.32.19.39.06.08.19.15.3.08.1-.1.08-.23.02-.33-.06-.09-.3-.23-.35-.29-.03-.05-.05-.1-.03-.16.02-.03.41.03.24-.1,0-.02-.24-.36-.24-.56,0-.16.07-.32.21-.32.1,0,.22.12.34.34.09.15.16.31.23.51,0,0,.65,1.08,1.02.73.18-.17-.34-.79.14-.58.48.21.83-.04.77-.35ZM5.73,8.97c-.48-.52-.74-1.58-.7-1.6.04-.04.36-.36.75.7.11.31-.02.9-.05.9Z"/>
    <path class="cls-2" d="M17.9,10.58c-.06-.31-.81.44-.52-.35.28-.79-.72-.3-.72-.3-.13.05-.44.05-.61.02-.24-.05-.43-.16-.43-.3,0-.13.07-.22.24-.31.16-.09.71-.1.73-.14.02-.02-.1-.23-.08-.28.02-.03.57-.05.59-.12.07-.18-.3-.43-.54-.4-.33.07-.43.07-.45.03-.03-.03.19-.35.05-.43-.02-.02-.64.31-.74.56-.08.23-.11.67-.07.85,0,.09,0,.17-.04.19-.03.03-.47-.37-.47-.39-.02-.06.02-.09.03-.13.16-.21.22-.54.16-.86-.08-.52-.45-.93-.73-1.17-.32-.38.43-.73.4-.68-.04.08-.15.76.42.7.26-.03.43-.22.45-.5.03-.35-.19-.67-.58-.7-.48-.05-1.29.52-1.27,1.4.02.94.79,1.91.79,1.93,0,.03-.75.33-.75.05,0-.15.09-.27.23-.36l-.08-.16c-.18.12-.36.29-.31.54.09.49,1.04.12,1.05.12.04,0,.35.33.33.35,0,.02-.73.47-.73.92,0,.32.34,1,.48.83.03-.03.16-.35.23-.35.03,0,.08.02.12.11.04.1.14.32.19.39.06.08.19.15.3.08.1-.1.08-.23.02-.33-.06-.09-.3-.23-.35-.29-.03-.05-.05-.1-.03-.16.02-.03.41.03.24-.1,0-.02-.24-.36-.24-.56,0-.16.07-.32.21-.32.1,0,.22.12.34.34.09.15.16.31.23.51,0,0,.65,1.08,1.02.73.18-.17-.34-.79.14-.58.48.21.83-.04.77-.35ZM14.67,8.97c-.48-.52-.74-1.58-.7-1.6.04-.04.36-.36.75.7.11.31-.02.9-.05.9Z"/>
  </g>
  <g>
    <rect class="cls-1" x="17.94" width="17.94" height="18.56"/>
    <path class="cls-2" d="M30.59,6.63c-.49.2.04-.41-.14-.58-.36-.36-1.02.72-1.02.72-.08.2-.15.36-.24.51-.12.21-.24.33-.34.33-.14,0-.21-.17-.21-.32,0-.2.25-.54.25-.56.17-.13-.23-.07-.24-.11-.02-.06,0-.11.03-.17.05-.05.29-.2.35-.28.07-.09.09-.23-.01-.33-.11-.07-.24,0-.3.08-.05.07-.15.28-.2.39-.03.09-.08.11-.12.11-.07,0-.2-.32-.22-.35-.15-.17-.49.51-.49.83,0,.45.72.91.72.92.02.02-.29.34-.34.34-.02,0-.96-.37-1.05.11-.05.25.13.42.31.54l.08-.16c-.13-.1-.23-.22-.22-.36,0-.28.75.02.75.06,0,.02-.77.98-.8,1.92-.02.88.78,1.46,1.26,1.41.39-.03.61-.34.58-.7-.01-.29-.19-.48-.45-.51-.57-.06-.46.62-.42.7.03.05-.71-.31-.4-.69.28-.23.65-.64.74-1.16.07-.33,0-.65-.15-.87-.02-.04-.05-.07-.03-.13,0-.02.44-.41.47-.39.04.02.04.1.04.19-.04.18-.02.61.06.85.1.25.72.59.74.57.15-.08-.08-.4-.05-.43.02-.03.13-.03.45.04.24.04.61-.21.55-.39-.03-.07-.58-.09-.59-.13-.02-.04.1-.26.09-.28-.02-.04-.57-.06-.73-.15-.17-.1-.24-.18-.24-.31,0-.14.19-.25.44-.3.18-.03.49-.03.61.02,0,0,1,.5.72-.29-.27-.79.46-.04.53-.35.06-.31-.28-.56-.76-.36ZM28.16,9.47c-.4,1.05-.72.74-.76.69-.03-.02.23-1.08.71-1.59.03,0,.16.59.04.9Z"/>
    <path class="cls-2" d="M21.61,6.63c-.49.2.04-.41-.14-.58-.36-.36-1.02.72-1.02.72-.08.2-.14.36-.24.51-.12.21-.24.33-.34.33-.14,0-.21-.17-.21-.32,0-.2.25-.54.25-.56.17-.13-.23-.07-.24-.11-.02-.06,0-.11.03-.17.05-.05.29-.2.35-.28.07-.09.08-.23-.02-.33-.11-.07-.24,0-.3.08-.05.07-.15.28-.19.39-.03.09-.08.11-.12.11-.07,0-.2-.32-.22-.35-.15-.17-.49.51-.49.83,0,.45.72.91.72.92.02.02-.3.34-.34.34-.02,0-.96-.37-1.05.11-.05.25.13.42.31.54l.08-.16c-.13-.1-.23-.22-.22-.36,0-.28.75.02.75.06,0,.02-.77.98-.8,1.92-.02.88.78,1.46,1.26,1.41.38-.03.61-.34.58-.7-.01-.29-.19-.48-.45-.51-.57-.06-.46.62-.42.7.03.05-.71-.31-.4-.69.28-.23.65-.64.74-1.16.07-.33,0-.65-.15-.87-.02-.04-.05-.07-.03-.13,0-.02.44-.41.47-.39.04.02.04.1.04.19-.04.18-.02.61.06.85.1.25.72.59.74.57.14-.08-.08-.4-.05-.43.02-.03.12-.03.45.04.24.04.61-.21.55-.39-.03-.07-.58-.09-.59-.13-.02-.04.1-.26.08-.28-.02-.04-.57-.06-.73-.15-.17-.1-.24-.18-.24-.31,0-.14.19-.25.44-.3.18-.03.49-.03.61.02,0,0,1,.5.72-.29-.27-.79.46-.04.53-.35.06-.31-.28-.56-.76-.36ZM19.18,9.47c-.4,1.05-.72.74-.76.69-.03-.02.23-1.08.71-1.59.03,0,.16.59.04.9Z"/>
    <path class="cls-2" d="M26.9,10.58c-.06-.31-.81.44-.52-.35.28-.79-.72-.3-.72-.3-.13.05-.44.05-.61.02-.24-.05-.44-.16-.44-.3,0-.13.07-.22.24-.31.16-.09.71-.1.73-.14.02-.02-.1-.23-.08-.28.02-.03.57-.05.59-.12.07-.18-.3-.43-.54-.4-.33.07-.43.07-.45.03-.03-.03.19-.35.05-.43-.02-.02-.64.31-.74.56-.08.23-.11.67-.07.85,0,.09,0,.17-.04.19-.03.03-.47-.37-.47-.39-.02-.06.02-.09.03-.13.16-.21.22-.54.16-.86-.08-.52-.45-.93-.73-1.17-.32-.38.43-.73.4-.68-.04.08-.15.76.42.7.26-.03.43-.22.45-.5.03-.35-.19-.67-.58-.7-.48-.05-1.29.52-1.27,1.4.02.94.79,1.91.79,1.93,0,.03-.75.33-.75.05,0-.15.09-.27.23-.36l-.08-.16c-.18.12-.36.29-.31.54.09.49,1.04.12,1.05.12.04,0,.35.33.33.35,0,.02-.73.47-.73.92,0,.32.34,1,.48.83.03-.03.16-.35.23-.35.03,0,.08.02.12.11.04.1.14.32.19.39.06.08.19.15.3.08.1-.1.08-.23.02-.33-.06-.09-.3-.23-.35-.29-.03-.05-.05-.1-.03-.16.02-.03.41.03.24-.1,0-.02-.24-.36-.24-.56,0-.16.07-.32.21-.32.1,0,.22.12.34.34.09.15.16.31.23.51,0,0,.65,1.08,1.02.73.18-.17-.34-.79.14-.58.48.21.83-.04.77-.35ZM23.67,8.97c-.48-.52-.74-1.58-.7-1.6.04-.04.36-.36.75.7.11.31-.02.9-.05.9Z"/>
    <path class="cls-2" d="M35.84,10.58c-.06-.31-.81.44-.52-.35.28-.79-.72-.3-.72-.3-.13.05-.44.05-.61.02-.24-.05-.43-.16-.43-.3,0-.13.07-.22.24-.31.16-.09.71-.1.73-.14.02-.02-.1-.23-.08-.28.02-.03.57-.05.59-.12.07-.18-.3-.43-.54-.4-.33.07-.43.07-.45.03-.03-.03.19-.35.05-.43-.02-.02-.64.31-.74.56-.08.23-.11.67-.07.85,0,.09,0,.17-.04.19-.03.03-.47-.37-.47-.39-.02-.06.02-.09.03-.13.16-.21.22-.54.16-.86-.08-.52-.45-.93-.73-1.17-.32-.38.43-.73.4-.68-.04.08-.15.76.42.7.26-.03.43-.22.45-.5.03-.35-.19-.67-.58-.7-.48-.05-1.29.52-1.27,1.4.02.94.79,1.91.79,1.93,0,.03-.75.33-.75.05,0-.15.09-.27.23-.36l-.08-.16c-.18.12-.36.29-.31.54.09.49,1.04.12,1.05.12.04,0,.35.33.33.35,0,.02-.73.47-.73.92,0,.32.34,1,.48.83.03-.03.16-.35.23-.35.03,0,.08.02.12.11.04.1.14.32.19.39.06.08.19.15.3.08.1-.1.08-.23.02-.33-.06-.09-.3-.23-.35-.29-.03-.05-.05-.1-.03-.16.02-.03.41.03.24-.1,0-.02-.24-.36-.24-.56,0-.16.07-.32.21-.32.1,0,.22.12.34.34.09.15.16.31.23.51,0,0,.65,1.08,1.02.73.18-.17-.34-.79.14-.58.48.21.83-.04.77-.35ZM32.61,8.97c-.48-.52-.74-1.58-.7-1.6.04-.04.36-.36.75.7.11.31-.02.9-.05.9Z"/>
  </g>
  <g>
    <rect class="cls-1" x="35.88" width="17.94" height="18.56"/>
    <path class="cls-2" d="M48.53,6.63c-.49.2.04-.41-.14-.58-.36-.36-1.02.72-1.02.72-.08.2-.15.36-.24.51-.12.21-.24.33-.34.33-.14,0-.21-.17-.21-.32,0-.2.25-.54.25-.56.17-.13-.23-.07-.24-.11-.02-.06,0-.11.03-.17.05-.05.29-.2.35-.28.07-.09.09-.23-.01-.33-.11-.07-.24,0-.3.08-.05.07-.15.28-.2.39-.03.09-.08.11-.12.11-.07,0-.2-.32-.22-.35-.15-.17-.49.51-.49.83,0,.45.72.91.72.92.02.02-.29.34-.34.34-.02,0-.96-.37-1.05.11-.05.25.13.42.31.54l.08-.16c-.13-.1-.23-.22-.22-.36,0-.28.75.02.75.06,0,.02-.77.98-.8,1.92-.02.88.78,1.46,1.26,1.41.39-.03.61-.34.58-.7-.01-.29-.19-.48-.45-.51-.57-.06-.46.62-.42.7.03.05-.71-.31-.4-.69.28-.23.65-.64.74-1.16.07-.33,0-.65-.15-.87-.02-.04-.05-.07-.03-.13,0-.02.44-.41.47-.39.04.02.04.1.04.19-.04.18-.02.61.06.85.1.25.72.59.74.57.15-.08-.08-.4-.05-.43.02-.03.13-.03.45.04.24.04.61-.21.55-.39-.03-.07-.58-.09-.59-.13-.02-.04.1-.26.09-.28-.02-.04-.57-.06-.73-.15-.17-.1-.24-.18-.24-.31,0-.14.19-.25.44-.3.18-.03.49-.03.61.02,0,0,1,.5.72-.29-.27-.79.46-.04.53-.35.06-.31-.28-.56-.76-.36ZM46.1,9.47c-.4,1.05-.72.74-.76.69-.03-.02.23-1.08.71-1.59.03,0,.16.59.04.9Z"/>
    <path class="cls-2" d="M39.55,6.63c-.49.2.04-.41-.14-.58-.36-.36-1.02.72-1.02.72-.08.2-.14.36-.24.51-.12.21-.24.33-.34.33-.14,0-.21-.17-.21-.32,0-.2.25-.54.25-.56.17-.13-.23-.07-.24-.11-.02-.06,0-.11.03-.17.05-.05.29-.2.35-.28.07-.09.08-.23-.02-.33-.11-.07-.24,0-.3.08-.05.07-.15.28-.19.39-.03.09-.08.11-.12.11-.07,0-.2-.32-.22-.35-.15-.17-.49.51-.49.83,0,.45.72.91.72.92.02.02-.3.34-.34.34-.02,0-.96-.37-1.05.11-.05.25.13.42.31.54l.08-.16c-.13-.1-.23-.22-.22-.36,0-.28.75.02.75.06,0,.02-.77.98-.8,1.92-.02.88.78,1.46,1.26,1.41.38-.03.61-.34.58-.7-.01-.29-.19-.48-.45-.51-.57-.06-.46.62-.42.7.03.05-.71-.31-.4-.69.28-.23.65-.64.74-1.16.07-.33,0-.65-.15-.87-.02-.04-.05-.07-.03-.13,0-.02.44-.41.47-.39.04.02.04.1.04.19-.04.18-.02.61.06.85.1.25.72.59.74.57.14-.08-.08-.4-.05-.43.02-.03.12-.03.45.04.24.04.61-.21.55-.39-.03-.07-.58-.09-.59-.13-.02-.04.1-.26.08-.28-.02-.04-.57-.06-.73-.15-.17-.1-.24-.18-.24-.31,0-.14.19-.25.44-.3.18-.03.49-.03.61.02,0,0,1,.5.72-.29-.27-.79.46-.04.53-.35.06-.31-.28-.56-.76-.36ZM37.12,9.47c-.4,1.05-.72.74-.76.69-.03-.02.23-1.08.71-1.59.03,0,.16.59.04.9Z"/>
    <path class="cls-2" d="M44.83,10.58c-.06-.31-.81.44-.52-.35.28-.79-.72-.3-.72-.3-.13.05-.44.05-.61.02-.24-.05-.44-.16-.44-.3,0-.13.07-.22.24-.31.16-.09.71-.1.73-.14.02-.02-.1-.23-.08-.28.02-.03.57-.05.59-.12.07-.18-.3-.43-.54-.4-.33.07-.43.07-.45.03-.03-.03.19-.35.05-.43-.02-.02-.64.31-.74.56-.08.23-.11.67-.07.85,0,.09,0,.17-.04.19-.03.03-.47-.37-.47-.39-.02-.06.02-.09.03-.13.16-.21.22-.54.16-.86-.08-.52-.45-.93-.73-1.17-.32-.38.43-.73.4-.68-.04.08-.15.76.42.7.26-.03.43-.22.45-.5.03-.35-.19-.67-.58-.7-.48-.05-1.29.52-1.27,1.4.02.94.79,1.91.79,1.93,0,.03-.75.33-.75.05,0-.15.09-.27.23-.36l-.08-.16c-.18.12-.36.29-.31.54.09.49,1.04.12,1.05.12.04,0,.35.33.33.35,0,.02-.73.47-.73.92,0,.32.34,1,.48.83.03-.03.16-.35.23-.35.03,0,.08.02.12.11.04.1.14.32.19.39.06.08.19.15.3.08.1-.1.08-.23.02-.33-.06-.09-.3-.23-.35-.29-.03-.05-.05-.1-.03-.16.02-.03.41.03.24-.1,0-.02-.24-.36-.24-.56,0-.16.07-.32.21-.32.1,0,.22.12.34.34.09.15.16.31.23.51,0,0,.65,1.08,1.02.73.18-.17-.34-.79.14-.58.48.21.83-.04.77-.35ZM41.61,8.97c-.48-.52-.74-1.58-.7-1.6.04-.04.36-.36.75.7.11.31-.02.9-.05.9Z"/>
    <path class="cls-2" d="M53.77,10.58c-.06-.31-.81.44-.52-.35.28-.79-.72-.3-.72-.3-.13.05-.44.05-.61.02-.24-.05-.43-.16-.43-.3,0-.13.07-.22.24-.31.16-.09.71-.1.73-.14.02-.02-.1-.23-.08-.28.02-.03.57-.05.59-.12.07-.18-.3-.43-.54-.4-.33.07-.43.07-.45.03-.03-.03.19-.35.05-.43-.02-.02-.64.31-.74.56-.08.23-.11.67-.07.85,0,.09,0,.17-.04.19-.03.03-.47-.37-.47-.39-.02-.06.02-.09.03-.13.16-.21.22-.54.16-.86-.08-.52-.45-.93-.73-1.17-.32-.38.43-.73.4-.68-.04.08-.15.76.42.7.26-.03.43-.22.45-.5.03-.35-.19-.67-.58-.7-.48-.05-1.29.52-1.27,1.4.02.94.79,1.91.79,1.93,0,.03-.75.33-.75.05,0-.15.09-.27.23-.36l-.08-.16c-.18.12-.36.29-.31.54.09.49,1.04.12,1.05.12.04,0,.35.33.33.35,0,.02-.73.47-.73.92,0,.32.34,1,.48.83.03-.03.16-.35.23-.35.03,0,.08.02.12.11.04.1.14.32.19.39.06.08.19.15.3.08.1-.1.08-.23.02-.33-.06-.09-.3-.23-.35-.29-.03-.05-.05-.1-.03-.16.02-.03.41.03.24-.1,0-.02-.24-.36-.24-.56,0-.16.07-.32.21-.32.1,0,.22.12.34.34.09.15.16.31.23.51,0,0,.65,1.08,1.02.73.18-.17-.34-.79.14-.58.48.21.83-.04.77-.35ZM50.55,8.97c-.48-.52-.74-1.58-.7-1.6.04-.04.36-.36.75.7.11.31-.02.9-.05.9Z"/>
  </g>
  <g>
    <rect class="cls-1" x="53.81" width="17.94" height="18.56"/>
    <path class="cls-2" d="M66.47,6.63c-.49.2.04-.41-.14-.58-.36-.36-1.02.72-1.02.72-.08.2-.15.36-.24.51-.12.21-.24.33-.34.33-.14,0-.21-.17-.21-.32,0-.2.25-.54.25-.56.17-.13-.23-.07-.24-.11-.02-.06,0-.11.03-.17.05-.05.29-.2.35-.28.07-.09.09-.23-.01-.33-.11-.07-.24,0-.3.08-.05.07-.15.28-.2.39-.03.09-.08.11-.12.11-.07,0-.2-.32-.22-.35-.15-.17-.49.51-.49.83,0,.45.72.91.72.92.02.02-.29.34-.34.34-.02,0-.96-.37-1.05.11-.05.25.13.42.31.54l.08-.16c-.13-.1-.23-.22-.22-.36,0-.28.75.02.75.06,0,.02-.77.98-.8,1.92-.02.88.78,1.46,1.26,1.41.39-.03.61-.34.58-.7-.01-.29-.19-.48-.45-.51-.57-.06-.46.62-.42.7.03.05-.71-.31-.4-.69.28-.23.65-.64.74-1.16.07-.33,0-.65-.15-.87-.02-.04-.05-.07-.03-.13,0-.02.44-.41.47-.39.04.02.04.1.04.19-.04.18-.02.61.06.85.1.25.72.59.74.57.15-.08-.08-.4-.05-.43.02-.03.13-.03.45.04.24.04.61-.21.55-.39-.03-.07-.58-.09-.59-.13-.02-.04.1-.26.09-.28-.02-.04-.57-.06-.73-.15-.17-.1-.24-.18-.24-.31,0-.14.19-.25.44-.3.18-.03.49-.03.61.02,0,0,1,.5.72-.29-.27-.79.46-.04.53-.35.06-.31-.28-.56-.76-.36ZM64.03,9.47c-.4,1.05-.72.74-.76.69-.03-.02.23-1.08.71-1.59.03,0,.16.59.04.9Z"/>
    <path class="cls-2" d="M57.49,6.63c-.49.2.04-.41-.14-.58-.36-.36-1.02.72-1.02.72-.08.2-.14.36-.24.51-.12.21-.24.33-.34.33-.14,0-.21-.17-.21-.32,0-.2.25-.54.25-.56.17-.13-.23-.07-.24-.11-.02-.06,0-.11.03-.17.05-.05.29-.2.35-.28.07-.09.08-.23-.02-.33-.11-.07-.24,0-.3.08-.05.07-.15.28-.19.39-.03.09-.08.11-.12.11-.07,0-.2-.32-.22-.35-.15-.17-.49.51-.49.83,0,.45.72.91.72.92.02.02-.3.34-.34.34-.02,0-.96-.37-1.05.11-.05.25.13.42.31.54l.08-.16c-.13-.1-.23-.22-.22-.36,0-.28.75.02.75.06,0,.02-.77.98-.8,1.92-.02.88.78,1.46,1.26,1.41.38-.03.61-.34.58-.7-.01-.29-.19-.48-.45-.51-.57-.06-.46.62-.42.7.03.05-.71-.31-.4-.69.28-.23.65-.64.74-1.16.07-.33,0-.65-.15-.87-.02-.04-.05-.07-.03-.13,0-.02.44-.41.47-.39.04.02.04.1.04.19-.04.18-.02.61.06.85.1.25.72.59.74.57.14-.08-.08-.4-.05-.43.02-.03.12-.03.45.04.24.04.61-.21.55-.39-.03-.07-.58-.09-.59-.13-.02-.04.1-.26.08-.28-.02-.04-.57-.06-.73-.15-.17-.1-.24-.18-.24-.31,0-.14.19-.25.44-.3.18-.03.49-.03.61.02,0,0,1,.5.72-.29-.27-.79.46-.04.53-.35.06-.31-.28-.56-.76-.36ZM55.05,9.47c-.4,1.05-.72.74-.76.69-.03-.02.23-1.08.71-1.59.03,0,.16.59.04.9Z"/>
    <path class="cls-2" d="M62.77,10.58c-.06-.31-.81.44-.52-.35.28-.79-.72-.3-.72-.3-.13.05-.44.05-.61.02-.24-.05-.44-.16-.44-.3,0-.13.07-.22.24-.31.16-.09.71-.1.73-.14.02-.02-.1-.23-.08-.28.02-.03.57-.05.59-.12.07-.18-.3-.43-.54-.4-.33.07-.43.07-.45.03-.03-.03.19-.35.05-.43-.02-.02-.64.31-.74.56-.08.23-.11.67-.07.85,0,.09,0,.17-.04.19-.03.03-.47-.37-.47-.39-.02-.06.02-.09.03-.13.16-.21.22-.54.16-.86-.08-.52-.45-.93-.73-1.17-.32-.38.43-.73.4-.68-.04.08-.15.76.42.7.26-.03.43-.22.45-.5.03-.35-.19-.67-.58-.7-.48-.05-1.29.52-1.27,1.4.02.94.79,1.91.79,1.93,0,.03-.75.33-.75.05,0-.15.09-.27.23-.36l-.08-.16c-.18.12-.36.29-.31.54.09.49,1.04.12,1.05.12.04,0,.35.33.33.35,0,.02-.73.47-.73.92,0,.32.34,1,.48.83.03-.03.16-.35.23-.35.03,0,.08.02.12.11.04.1.14.32.19.39.06.08.19.15.3.08.1-.1.08-.23.02-.33-.06-.09-.3-.23-.35-.29-.03-.05-.05-.1-.03-.16.02-.03.41.03.24-.1,0-.02-.24-.36-.24-.56,0-.16.07-.32.21-.32.1,0,.22.12.34.34.09.15.16.31.23.51,0,0,.65,1.08,1.02.73.18-.17-.34-.79.14-.58.48.21.83-.04.77-.35ZM59.55,8.97c-.48-.52-.74-1.58-.7-1.6.04-.04.36-.36.75.7.11.31-.02.9-.05.9Z"/>
    <path class="cls-2" d="M71.71,10.58c-.06-.31-.81.44-.52-.35.28-.79-.72-.3-.72-.3-.13.05-.44.05-.61.02-.24-.05-.43-.16-.43-.3,0-.13.07-.22.24-.31.16-.09.71-.1.73-.14.02-.02-.1-.23-.08-.28.02-.03.57-.05.59-.12.07-.18-.3-.43-.54-.4-.33.07-.43.07-.45.03-.03-.03.19-.35.05-.43-.02-.02-.64.31-.74.56-.08.23-.11.67-.07.85,0,.09,0,.17-.04.19-.03.03-.47-.37-.47-.39-.02-.06.02-.09.03-.13.16-.21.22-.54.16-.86-.08-.52-.45-.93-.73-1.17-.32-.38.43-.73.4-.68-.04.08-.15.76.42.7.26-.03.43-.22.45-.5.03-.35-.19-.67-.58-.7-.48-.05-1.29.52-1.27,1.4.02.94.79,1.91.79,1.93,0,.03-.75.33-.75.05,0-.15.09-.27.23-.36l-.08-.16c-.18.12-.36.29-.31.54.09.49,1.04.12,1.05.12.04,0,.35.33.33.35,0,.02-.73.47-.73.92,0,.32.34,1,.48.83.03-.03.16-.35.23-.35.03,0,.08.02.12.11.04.1.14.32.19.39.06.08.19.15.3.08.1-.1.08-.23.02-.33-.06-.09-.3-.23-.35-.29-.03-.05-.05-.1-.03-.16.02-.03.41.03.24-.1,0-.02-.24-.36-.24-.56,0-.16.07-.32.21-.32.1,0,.22.12.34.34.09.15.16.31.23.51,0,0,.65,1.08,1.02.73.18-.17-.34-.79.14-.58.48.21.83-.04.77-.35ZM68.49,8.97c-.48-.52-.74-1.58-.7-1.6.04-.04.36-.36.75.7.11.31-.02.9-.05.9Z"/>
  </g>
  <g>
    <rect class="cls-1" x="71.75" width="17.94" height="18.56"/>
    <path class="cls-2" d="M84.4,6.63c-.49.2.04-.41-.14-.58-.36-.36-1.02.72-1.02.72-.08.2-.15.36-.24.51-.12.21-.24.33-.34.33-.14,0-.21-.17-.21-.32,0-.2.25-.54.25-.56.17-.13-.23-.07-.24-.11-.02-.06,0-.11.03-.17.05-.05.29-.2.35-.28.07-.09.09-.23-.01-.33-.11-.07-.24,0-.3.08-.05.07-.15.28-.2.39-.03.09-.08.11-.12.11-.07,0-.2-.32-.22-.35-.15-.17-.49.51-.49.83,0,.45.72.91.72.92.02.02-.29.34-.34.34-.02,0-.96-.37-1.05.11-.05.25.13.42.31.54l.08-.16c-.13-.1-.23-.22-.22-.36,0-.28.75.02.75.06,0,.02-.77.98-.8,1.92-.02.88.78,1.46,1.26,1.41.39-.03.61-.34.58-.7-.01-.29-.19-.48-.45-.51-.57-.06-.46.62-.42.7.03.05-.71-.31-.4-.69.28-.23.65-.64.74-1.16.07-.33,0-.65-.15-.87-.02-.04-.05-.07-.03-.13,0-.02.44-.41.47-.39.04.02.04.1.04.19-.04.18-.02.61.06.85.1.25.72.59.74.57.15-.08-.08-.4-.05-.43.02-.03.13-.03.45.04.24.04.61-.21.55-.39-.03-.07-.58-.09-.59-.13-.02-.04.1-.26.09-.28-.02-.04-.57-.06-.73-.15-.17-.1-.24-.18-.24-.31,0-.14.19-.25.44-.3.18-.03.49-.03.61.02,0,0,1,.5.72-.29-.27-.79.46-.04.53-.35.06-.31-.28-.56-.76-.36ZM81.97,9.47c-.4,1.05-.72.74-.76.69-.03-.02.23-1.08.71-1.59.03,0,.16.59.04.9Z"/>
    <path class="cls-2" d="M75.42,6.63c-.49.2.04-.41-.14-.58-.36-.36-1.02.72-1.02.72-.08.2-.14.36-.24.51-.12.21-.24.33-.34.33-.14,0-.21-.17-.21-.32,0-.2.25-.54.25-.56.17-.13-.23-.07-.24-.11-.02-.06,0-.11.03-.17.05-.05.29-.2.35-.28.07-.09.08-.23-.02-.33-.11-.07-.24,0-.3.08-.05.07-.15.28-.19.39-.03.09-.08.11-.12.11-.07,0-.2-.32-.22-.35-.15-.17-.49.51-.49.83,0,.45.72.91.72.92.02.02-.3.34-.34.34-.02,0-.96-.37-1.05.11-.05.25.13.42.31.54l.08-.16c-.13-.1-.23-.22-.22-.36,0-.28.75.02.75.06,0,.02-.77.98-.8,1.92-.02.88.78,1.46,1.26,1.41.38-.03.61-.34.58-.7-.01-.29-.19-.48-.45-.51-.57-.06-.46.62-.42.7.03.05-.71-.31-.4-.69.28-.23.65-.64.74-1.16.07-.33,0-.65-.15-.87-.02-.04-.05-.07-.03-.13,0-.02.44-.41.47-.39.04.02.04.1.04.19-.04.18-.02.61.06.85.1.25.72.59.74.57.14-.08-.08-.4-.05-.43.02-.03.12-.03.45.04.24.04.61-.21.55-.39-.03-.07-.58-.09-.59-.13-.02-.04.1-.26.08-.28-.02-.04-.57-.06-.73-.15-.17-.1-.24-.18-.24-.31,0-.14.19-.25.44-.3.18-.03.49-.03.61.02,0,0,1,.5.72-.29-.27-.79.46-.04.53-.35.06-.31-.28-.56-.76-.36ZM72.99,9.47c-.4,1.05-.72.74-.76.69-.03-.02.23-1.08.71-1.59.03,0,.16.59.04.9Z"/>
    <path class="cls-2" d="M80.71,10.58c-.06-.31-.81.44-.52-.35.28-.79-.72-.3-.72-.3-.13.05-.44.05-.61.02-.24-.05-.44-.16-.44-.3,0-.13.07-.22.24-.31.16-.09.71-.1.73-.14.02-.02-.1-.23-.08-.28.02-.03.57-.05.59-.12.07-.18-.3-.43-.54-.4-.33.07-.43.07-.45.03-.03-.03.19-.35.05-.43-.02-.02-.64.31-.74.56-.08.23-.11.67-.07.85,0,.09,0,.17-.04.19-.03.03-.47-.37-.47-.39-.02-.06.02-.09.03-.13.16-.21.22-.54.16-.86-.08-.52-.45-.93-.73-1.17-.32-.38.43-.73.4-.68-.04.08-.15.76.42.7.26-.03.43-.22.45-.5.03-.35-.19-.67-.58-.7-.48-.05-1.29.52-1.27,1.4.02.94.79,1.91.79,1.93,0,.03-.75.33-.75.05,0-.15.09-.27.23-.36l-.08-.16c-.18.12-.36.29-.31.54.09.49,1.04.12,1.05.12.04,0,.35.33.33.35,0,.02-.73.47-.73.92,0,.32.34,1,.48.83.03-.03.16-.35.23-.35.03,0,.08.02.12.11.04.1.14.32.19.39.06.08.19.15.3.08.1-.1.08-.23.02-.33-.06-.09-.3-.23-.35-.29-.03-.05-.05-.1-.03-.16.02-.03.41.03.24-.1,0-.02-.24-.36-.24-.56,0-.16.07-.32.21-.32.1,0,.22.12.34.34.09.15.16.31.23.51,0,0,.65,1.08,1.02.73.18-.17-.34-.79.14-.58.48.21.83-.04.77-.35ZM77.48,8.97c-.48-.52-.74-1.58-.7-1.6.04-.04.36-.36.75.7.11.31-.02.9-.05.9Z"/>
    <path class="cls-2" d="M89.65,10.58c-.06-.31-.81.44-.52-.35.28-.79-.72-.3-.72-.3-.13.05-.44.05-.61.02-.24-.05-.43-.16-.43-.3,0-.13.07-.22.24-.31.16-.09.71-.1.73-.14.02-.02-.1-.23-.08-.28.02-.03.57-.05.59-.12.07-.18-.3-.43-.54-.4-.33.07-.43.07-.45.03-.03-.03.19-.35.05-.43-.02-.02-.64.31-.74.56-.08.23-.11.67-.07.85,0,.09,0,.17-.04.19-.03.03-.47-.37-.47-.39-.02-.06.02-.09.03-.13.16-.21.22-.54.16-.86-.08-.52-.45-.93-.73-1.17-.32-.38.43-.73.4-.68-.04.08-.15.76.42.7.26-.03.43-.22.45-.5.03-.35-.19-.67-.58-.7-.48-.05-1.29.52-1.27,1.4.02.94.79,1.91.79,1.93,0,.03-.75.33-.75.05,0-.15.09-.27.23-.36l-.08-.16c-.18.12-.36.29-.31.54.09.49,1.04.12,1.05.12.04,0,.35.33.33.35,0,.02-.73.47-.73.92,0,.32.34,1,.48.83.03-.03.16-.35.23-.35.03,0,.08.02.12.11.04.1.14.32.19.39.06.08.19.15.3.08.1-.1.08-.23.02-.33-.06-.09-.3-.23-.35-.29-.03-.05-.05-.1-.03-.16.02-.03.41.03.24-.1,0-.02-.24-.36-.24-.56,0-.16.07-.32.21-.32.1,0,.22.12.34.34.09.15.16.31.23.51,0,0,.65,1.08,1.02.73.18-.17-.34-.79.14-.58.48.21.83-.04.77-.35ZM86.42,8.97c-.48-.52-.74-1.58-.7-1.6.04-.04.36-.36.75.7.11.31-.02.9-.05.9Z"/>
  </g>
  <g>
    <rect class="cls-1" x="89.69" width="17.94" height="18.56"/>
    <path class="cls-2" d="M102.34,6.63c-.49.2.04-.41-.14-.58-.36-.36-1.02.72-1.02.72-.08.2-.15.36-.24.51-.12.21-.24.33-.34.33-.14,0-.21-.17-.21-.32,0-.2.25-.54.25-.56.17-.13-.23-.07-.24-.11-.02-.06,0-.11.03-.17.05-.05.29-.2.35-.28.07-.09.09-.23-.01-.33-.11-.07-.24,0-.3.08-.05.07-.15.28-.2.39-.03.09-.08.11-.12.11-.07,0-.2-.32-.22-.35-.15-.17-.49.51-.49.83,0,.45.72.91.72.92.02.02-.29.34-.34.34-.02,0-.96-.37-1.05.11-.05.25.13.42.31.54l.08-.16c-.13-.1-.23-.22-.22-.36,0-.28.75.02.75.06,0,.02-.77.98-.8,1.92-.02.88.78,1.46,1.26,1.41.39-.03.61-.34.58-.7-.01-.29-.19-.48-.45-.51-.57-.06-.46.62-.42.7.03.05-.71-.31-.4-.69.28-.23.65-.64.74-1.16.07-.33,0-.65-.15-.87-.02-.04-.05-.07-.03-.13,0-.02.44-.41.47-.39.04.02.04.1.04.19-.04.18-.02.61.06.85.1.25.72.59.74.57.15-.08-.08-.4-.05-.43.02-.03.13-.03.45.04.24.04.61-.21.55-.39-.03-.07-.58-.09-.59-.13-.02-.04.1-.26.09-.28-.02-.04-.57-.06-.73-.15-.17-.1-.24-.18-.24-.31,0-.14.19-.25.44-.3.18-.03.49-.03.61.02,0,0,1,.5.72-.29-.27-.79.46-.04.53-.35.06-.31-.28-.56-.76-.36ZM99.91,9.47c-.4,1.05-.72.74-.76.69-.03-.02.23-1.08.71-1.59.03,0,.16.59.04.9Z"/>
    <path class="cls-2" d="M93.36,6.63c-.49.2.04-.41-.14-.58-.36-.36-1.02.72-1.02.72-.08.2-.14.36-.24.51-.12.21-.24.33-.34.33-.14,0-.21-.17-.21-.32,0-.2.25-.54.25-.56.17-.13-.23-.07-.24-.11-.02-.06,0-.11.03-.17.05-.05.29-.2.35-.28.07-.09.08-.23-.02-.33-.11-.07-.24,0-.3.08-.05.07-.15.28-.19.39-.03.09-.08.11-.12.11-.07,0-.2-.32-.22-.35-.15-.17-.49.51-.49.83,0,.45.72.91.72.92.02.02-.3.34-.34.34-.02,0-.96-.37-1.05.11-.05.25.13.42.31.54l.08-.16c-.13-.1-.23-.22-.22-.36,0-.28.75.02.75.06,0,.02-.77.98-.8,1.92-.02.88.78,1.46,1.26,1.41.38-.03.61-.34.58-.7-.01-.29-.19-.48-.45-.51-.57-.06-.46.62-.42.7.03.05-.71-.31-.4-.69.28-.23.65-.64.74-1.16.07-.33,0-.65-.15-.87-.02-.04-.05-.07-.03-.13,0-.02.44-.41.47-.39.04.02.04.1.04.19-.04.18-.02.61.06.85.1.25.72.59.74.57.14-.08-.08-.4-.05-.43.02-.03.12-.03.45.04.24.04.61-.21.55-.39-.03-.07-.58-.09-.59-.13-.02-.04.1-.26.08-.28-.02-.04-.57-.06-.73-.15-.17-.1-.24-.18-.24-.31,0-.14.19-.25.44-.3.18-.03.49-.03.61.02,0,0,1,.5.72-.29-.27-.79.46-.04.53-.35.06-.31-.28-.56-.76-.36ZM90.93,9.47c-.4,1.05-.72.74-.76.69-.03-.02.23-1.08.71-1.59.03,0,.16.59.04.9Z"/>
    <path class="cls-2" d="M98.65,10.58c-.06-.31-.81.44-.52-.35.28-.79-.72-.3-.72-.3-.13.05-.44.05-.61.02-.24-.05-.44-.16-.44-.3,0-.13.07-.22.24-.31.16-.09.71-.1.73-.14.02-.02-.1-.23-.08-.28.02-.03.57-.05.59-.12.07-.18-.3-.43-.54-.4-.33.07-.43.07-.45.03-.03-.03.19-.35.05-.43-.02-.02-.64.31-.74.56-.08.23-.11.67-.07.85,0,.09,0,.17-.04.19-.03.03-.47-.37-.47-.39-.02-.06.02-.09.03-.13.16-.21.22-.54.16-.86-.08-.52-.45-.93-.73-1.17-.32-.38.43-.73.4-.68-.04.08-.15.76.42.7.26-.03.43-.22.45-.5.03-.35-.19-.67-.58-.7-.48-.05-1.29.52-1.27,1.4.02.94.79,1.91.79,1.93,0,.03-.75.33-.75.05,0-.15.09-.27.23-.36l-.08-.16c-.18.12-.36.29-.31.54.09.49,1.04.12,1.05.12.04,0,.35.33.33.35,0,.02-.73.47-.73.92,0,.32.34,1,.48.83.03-.03.16-.35.23-.35.03,0,.08.02.12.11.04.1.14.32.19.39.06.08.19.15.3.08.1-.1.08-.23.02-.33-.06-.09-.3-.23-.35-.29-.03-.05-.05-.1-.03-.16.02-.03.41.03.24-.1,0-.02-.24-.36-.24-.56,0-.16.07-.32.21-.32.1,0,.22.12.34.34.09.15.16.31.23.51,0,0,.65,1.08,1.02.73.18-.17-.34-.79.14-.58.48.21.83-.04.77-.35ZM95.42,8.97c-.48-.52-.74-1.58-.7-1.6.04-.04.36-.36.75.7.11.31-.02.9-.05.9Z"/>
    <path class="cls-2" d="M107.59,10.58c-.06-.31-.81.44-.52-.35.28-.79-.72-.3-.72-.3-.13.05-.44.05-.61.02-.24-.05-.43-.16-.43-.3,0-.13.07-.22.24-.31.16-.09.71-.1.73-.14.02-.02-.1-.23-.08-.28.02-.03.57-.05.59-.12.07-.18-.3-.43-.54-.4-.33.07-.43.07-.45.03-.03-.03.19-.35.05-.43-.02-.02-.64.31-.74.56-.08.23-.11.67-.07.85,0,.09,0,.17-.04.19-.03.03-.47-.37-.47-.39-.02-.06.02-.09.03-.13.16-.21.22-.54.16-.86-.08-.52-.45-.93-.73-1.17-.32-.38.43-.73.4-.68-.04.08-.15.76.42.7.26-.03.43-.22.45-.5.03-.35-.19-.67-.58-.7-.48-.05-1.29.52-1.27,1.4.02.94.79,1.91.79,1.93,0,.03-.75.33-.75.05,0-.15.09-.27.23-.36l-.08-.16c-.18.12-.36.29-.31.54.09.49,1.04.12,1.05.12.04,0,.35.33.33.35,0,.02-.73.47-.73.92,0,.32.34,1,.48.83.03-.03.16-.35.23-.35.03,0,.08.02.12.11.04.1.14.32.19.39.06.08.19.15.3.08.1-.1.08-.23.02-.33-.06-.09-.3-.23-.35-.29-.03-.05-.05-.1-.03-.16.02-.03.41.03.24-.1,0-.02-.24-.36-.24-.56,0-.16.07-.32.21-.32.1,0,.22.12.34.34.09.15.16.31.23.51,0,0,.65,1.08,1.02.73.18-.17-.34-.79.14-.58.48.21.83-.04.77-.35ZM104.36,8.97c-.48-.52-.74-1.58-.7-1.6.04-.04.36-.36.75.7.11.31-.02.9-.05.9Z"/>
  </g>
  <g>
    <rect class="cls-1" x="107.63" width="17.94" height="18.56"/>
    <path class="cls-2" d="M120.28,6.63c-.49.2.04-.41-.14-.58-.36-.36-1.02.72-1.02.72-.08.2-.15.36-.24.51-.12.21-.24.33-.34.33-.14,0-.21-.17-.21-.32,0-.2.25-.54.25-.56.17-.13-.23-.07-.24-.11-.02-.06,0-.11.03-.17.05-.05.29-.2.35-.28.07-.09.09-.23-.01-.33-.11-.07-.24,0-.3.08-.05.07-.15.28-.2.39-.03.09-.08.11-.12.11-.07,0-.2-.32-.22-.35-.15-.17-.49.51-.49.83,0,.45.72.91.72.92.02.02-.29.34-.34.34-.02,0-.96-.37-1.05.11-.05.25.13.42.31.54l.08-.16c-.13-.1-.23-.22-.22-.36,0-.28.75.02.75.06,0,.02-.77.98-.8,1.92-.02.88.78,1.46,1.26,1.41.39-.03.61-.34.58-.7-.01-.29-.19-.48-.45-.51-.57-.06-.46.62-.42.7.03.05-.71-.31-.4-.69.28-.23.65-.64.74-1.16.07-.33,0-.65-.15-.87-.02-.04-.05-.07-.03-.13,0-.02.44-.41.47-.39.04.02.04.1.04.19-.04.18-.02.61.06.85.1.25.72.59.74.57.15-.08-.08-.4-.05-.43.02-.03.13-.03.45.04.24.04.61-.21.55-.39-.03-.07-.58-.09-.59-.13-.02-.04.1-.26.09-.28-.02-.04-.57-.06-.73-.15-.17-.1-.24-.18-.24-.31,0-.14.19-.25.44-.3.18-.03.49-.03.61.02,0,0,1,.5.72-.29-.27-.79.46-.04.53-.35.06-.31-.28-.56-.76-.36ZM117.85,9.47c-.4,1.05-.72.74-.76.69-.03-.02.23-1.08.71-1.59.03,0,.16.59.04.9Z"/>
    <path class="cls-2" d="M111.3,6.63c-.49.2.04-.41-.14-.58-.36-.36-1.02.72-1.02.72-.08.2-.14.36-.24.51-.12.21-.24.33-.34.33-.14,0-.21-.17-.21-.32,0-.2.25-.54.25-.56.17-.13-.23-.07-.24-.11-.02-.06,0-.11.03-.17.05-.05.29-.2.35-.28.07-.09.08-.23-.02-.33-.11-.07-.24,0-.3.08-.05.07-.15.28-.19.39-.03.09-.08.11-.12.11-.07,0-.2-.32-.22-.35-.15-.17-.49.51-.49.83,0,.45.72.91.72.92.02.02-.3.34-.34.34-.02,0-.96-.37-1.05.11-.05.25.13.42.31.54l.08-.16c-.13-.1-.23-.22-.22-.36,0-.28.75.02.75.06,0,.02-.77.98-.8,1.92-.02.88.78,1.46,1.26,1.41.38-.03.61-.34.58-.7-.01-.29-.19-.48-.45-.51-.57-.06-.46.62-.42.7.03.05-.71-.31-.4-.69.28-.23.65-.64.74-1.16.07-.33,0-.65-.15-.87-.02-.04-.05-.07-.03-.13,0-.02.44-.41.47-.39.04.02.04.1.04.19-.04.18-.02.61.06.85.1.25.72.59.74.57.14-.08-.08-.4-.05-.43.02-.03.12-.03.45.04.24.04.61-.21.55-.39-.03-.07-.58-.09-.59-.13-.02-.04.1-.26.08-.28-.02-.04-.57-.06-.73-.15-.17-.1-.24-.18-.24-.31,0-.14.19-.25.44-.3.18-.03.49-.03.61.02,0,0,1,.5.72-.29-.27-.79.46-.04.53-.35.06-.31-.28-.56-.76-.36ZM108.87,9.47c-.4,1.05-.72.74-.76.69-.03-.02.23-1.08.71-1.59.03,0,.16.59.04.9Z"/>
    <path class="cls-2" d="M116.59,10.58c-.06-.31-.81.44-.52-.35.28-.79-.72-.3-.72-.3-.13.05-.44.05-.61.02-.24-.05-.44-.16-.44-.3,0-.13.07-.22.24-.31.16-.09.71-.1.73-.14.02-.02-.1-.23-.08-.28.02-.03.57-.05.59-.12.07-.18-.3-.43-.54-.4-.33.07-.43.07-.45.03-.03-.03.19-.35.05-.43-.02-.02-.64.31-.74.56-.08.23-.11.67-.07.85,0,.09,0,.17-.04.19-.03.03-.47-.37-.47-.39-.02-.06.02-.09.03-.13.16-.21.22-.54.16-.86-.08-.52-.45-.93-.73-1.17-.32-.38.43-.73.4-.68-.04.08-.15.76.42.7.26-.03.43-.22.45-.5.03-.35-.19-.67-.58-.7-.48-.05-1.29.52-1.27,1.4.02.94.79,1.91.79,1.93,0,.03-.75.33-.75.05,0-.15.09-.27.23-.36l-.08-.16c-.18.12-.36.29-.31.54.09.49,1.04.12,1.05.12.04,0,.35.33.33.35,0,.02-.73.47-.73.92,0,.32.34,1,.48.83.03-.03.16-.35.23-.35.03,0,.08.02.12.11.04.1.14.32.19.39.06.08.19.15.3.08.1-.1.08-.23.02-.33-.06-.09-.3-.23-.35-.29-.03-.05-.05-.1-.03-.16.02-.03.41.03.24-.1,0-.02-.24-.36-.24-.56,0-.16.07-.32.21-.32.1,0,.22.12.34.34.09.15.16.31.23.51,0,0,.65,1.08,1.02.73.18-.17-.34-.79.14-.58.48.21.83-.04.77-.35ZM113.36,8.97c-.48-.52-.74-1.58-.7-1.6.04-.04.36-.36.75.7.11.31-.02.9-.05.9Z"/>
    <path class="cls-2" d="M125.53,10.58c-.06-.31-.81.44-.52-.35.28-.79-.72-.3-.72-.3-.13.05-.44.05-.61.02-.24-.05-.43-.16-.43-.3,0-.13.07-.22.24-.31.16-.09.71-.1.73-.14.02-.02-.1-.23-.08-.28.02-.03.57-.05.59-.12.07-.18-.3-.43-.54-.4-.33.07-.43.07-.45.03-.03-.03.19-.35.05-.43-.02-.02-.64.31-.74.56-.08.23-.11.67-.07.85,0,.09,0,.17-.04.19-.03.03-.47-.37-.47-.39-.02-.06.02-.09.03-.13.16-.21.22-.54.16-.86-.08-.52-.45-.93-.73-1.17-.32-.38.43-.73.4-.68-.04.08-.15.76.42.7.26-.03.43-.22.45-.5.03-.35-.19-.67-.58-.7-.48-.05-1.29.52-1.27,1.4.02.94.79,1.91.79,1.93,0,.03-.75.33-.75.05,0-.15.09-.27.23-.36l-.08-.16c-.18.12-.36.29-.31.54.09.49,1.04.12,1.05.12.04,0,.35.33.33.35,0,.02-.73.47-.73.92,0,.32.34,1,.48.83.03-.03.16-.35.23-.35.03,0,.08.02.12.11.04.1.14.32.19.39.06.08.19.15.3.08.1-.1.08-.23.02-.33-.06-.09-.3-.23-.35-.29-.03-.05-.05-.1-.03-.16.02-.03.41.03.24-.1,0-.02-.24-.36-.24-.56,0-.16.07-.32.21-.32.1,0,.22.12.34.34.09.15.16.31.23.51,0,0,.65,1.08,1.02.73.18-.17-.34-.79.14-.58.48.21.83-.04.77-.35ZM122.3,8.97c-.48-.52-.74-1.58-.7-1.6.04-.04.36-.36.75.7.11.31-.02.9-.05.9Z"/>
  </g>
</svg>